G04 MADE WITH FRITZING*
G04 WWW.FRITZING.ORG*
G04 DOUBLE SIDED*
G04 HOLES PLATED*
G04 CONTOUR ON CENTER OF CONTOUR VECTOR*
%FSLAX26Y26*%
%MOIN*%
%ADD10C,0.128110*%
%ADD11C,0.069685*%
%ADD12C,0.077559*%
%ADD13C,0.089370*%
%ADD14C,0.069055*%
%ADD15C,0.085000*%
%ADD16C,0.080000*%
%ADD17C,0.049370*%
%ADD18R,0.085000X0.085000*%
G04 MASK0*
%FSLAX26Y26*%
%MOIN*%
D10*
X2422350Y137150D03*
X140144Y135880D03*
X140144Y1042659D03*
X2423610Y1042659D03*
D11*
X916433Y117460D03*
D12*
X837689Y117460D03*
D11*
X1152660Y117460D03*
X1231390Y117460D03*
X1971540Y117460D03*
X1705800Y117460D03*
X325878Y117460D03*
D13*
X99500Y737537D03*
D11*
X640844Y117460D03*
D13*
X99500Y639114D03*
D11*
X562100Y117460D03*
D13*
X99500Y530848D03*
D11*
X2050290Y117460D03*
X1784540Y117460D03*
X404622Y117460D03*
D13*
X99500Y422581D03*
X1506990Y259192D03*
X2235330Y259192D03*
X2235330Y357614D03*
X2235330Y780848D03*
X2235330Y879270D03*
X1506990Y879270D03*
X1506990Y780848D03*
X1506990Y682426D03*
X1506990Y357614D03*
D14*
X324700Y993447D03*
X424700Y993447D03*
X524700Y993447D03*
X624700Y993447D03*
X724700Y993447D03*
X824700Y993447D03*
X924700Y993447D03*
X1024700Y993447D03*
X1124700Y993447D03*
X1224700Y993447D03*
X1324700Y993447D03*
X1424700Y993447D03*
X1524700Y993447D03*
X1624700Y993447D03*
X1724700Y993447D03*
X1824700Y993447D03*
X1924700Y993447D03*
X2024700Y993447D03*
X2124700Y993447D03*
X2224700Y993447D03*
X323520Y1093840D03*
X423520Y1093840D03*
X523520Y1093840D03*
X623520Y1093840D03*
X723520Y1093840D03*
X823520Y1093840D03*
X923520Y1093840D03*
X1023520Y1093840D03*
X1123520Y1093840D03*
X1223520Y1093840D03*
X1323520Y1093840D03*
X1423520Y1093840D03*
X1523520Y1093840D03*
X1623520Y1093840D03*
X1723520Y1093840D03*
X1823520Y1093840D03*
X1923520Y1093840D03*
X2023520Y1093840D03*
X2123520Y1093840D03*
X2223520Y1093840D03*
D15*
X814467Y482903D03*
X414467Y482903D03*
X408178Y570226D03*
X808178Y570226D03*
D16*
X965644Y519248D03*
X965644Y619433D03*
D15*
X814467Y767070D03*
X414467Y767070D03*
X814456Y394326D03*
X414456Y394326D03*
D16*
X955800Y394814D03*
X955800Y294629D03*
X955800Y837726D03*
X955800Y737541D03*
D15*
X408167Y304470D03*
X808167Y304470D03*
X408178Y658803D03*
X808178Y658803D03*
X1172340Y836270D03*
X1172340Y736270D03*
X1223120Y334003D03*
X1123120Y334003D03*
X1223120Y560381D03*
X1123120Y560381D03*
D17*
X1992000Y802970D03*
X728000Y514970D03*
X328000Y162970D03*
X1672000Y882970D03*
X1640000Y690970D03*
X1864000Y882970D03*
X2072000Y914970D03*
D18*
X1172340Y836270D03*
X1223120Y334003D03*
X1223120Y560381D03*
G04 End of Mask0*
M02*