; NON-PLATED HOLES START AT T1
; THROUGH (PLATED) HOLES START AT T100
M48
INCH
T1C0.118110
T100C0.015748
T101C0.039370
T102C0.027559
T103C0.035000
T104C0.019685
T105C0.030000
%
T1
X001401Y010426
X001401Y001358
X024236Y010426
X024223Y001371
T100
X007280Y005149
X018640Y008829
X020720Y009149
X019920Y008029
X016720Y008829
X016400Y006909
X003280Y001629
T101
X014235Y010938
X012247Y009934
X005235Y010938
X019247Y009934
X010247Y009934
X000995Y007375
X022353Y008792
X004235Y010938
X015235Y010938
X015069Y007808
X020247Y009934
X009247Y009934
X022247Y009934
X022353Y002591
X022353Y007808
X011247Y009934
X010235Y010938
X011235Y010938
X022235Y010938
X021235Y010938
X012235Y010938
X021247Y009934
X022353Y003576
X020235Y010938
X016247Y009934
X015069Y003576
X013235Y010938
X014247Y009934
X015069Y008792
X008235Y010938
X000995Y004225
X006247Y009934
X000995Y006391
X003235Y010938
X018235Y010938
X004247Y009934
X015069Y006824
X019235Y010938
X007235Y010938
X015069Y002591
X007247Y009934
X018247Y009934
X015247Y009934
X003247Y009934
X006235Y010938
X009235Y010938
X017247Y009934
X017235Y010938
X000995Y005308
X008247Y009934
X005247Y009934
X013247Y009934
X016235Y010938
T102
X008376Y001174
T103
X011723Y008362
X004144Y007670
X004144Y004829
X008081Y003044
X011231Y005603
X011231Y003340
X004081Y003044
X008144Y003943
X012231Y005603
X004081Y006588
X011723Y007362
X008144Y004829
X004081Y005702
X008144Y007670
X008081Y005702
X008081Y006588
X004144Y003943
X012231Y003340
T104
X017845Y001174
X011526Y001174
X020502Y001174
X004046Y001174
X006408Y001174
X012313Y001174
X003258Y001174
X019715Y001174
X009164Y001174
X005621Y001174
X017058Y001174
T105
X009656Y006194
X009558Y007375
X009558Y002946
X009656Y005192
X009558Y008377
X009558Y003948
T00
M30
