G04 MADE WITH FRITZING*
G04 WWW.FRITZING.ORG*
G04 DOUBLE SIDED*
G04 HOLES PLATED*
G04 CONTOUR ON CENTER OF CONTOUR VECTOR*
%FSLAX26Y26*%
%MOIN*%
%ADD10C,0.059055*%
%ADD11C,0.080000*%
%ADD12C,0.060194*%
%ADD13C,0.060208*%
%ADD14C,0.060444*%
%ADD15C,0.075000*%
%ADD16C,0.070000*%
%ADD17C,0.047559*%
%ADD18C,0.039370*%
%ADD19R,0.075000X0.075000*%
%ADD20C,0.016000*%
%ADD21R,0.001000X0.001000*%
G04 COPPER0*
%FSLAX26Y26*%
%MOIN*%
D10*
X2226560Y1086252D03*
X2126560Y1086252D03*
X2026560Y1086252D03*
X1926560Y1086252D03*
X1826560Y1086252D03*
X1726560Y1086252D03*
X1626560Y1086252D03*
X1526560Y1086252D03*
X1426560Y1086252D03*
X1326560Y1086252D03*
X1226560Y1086252D03*
X1126560Y1086252D03*
X1026560Y1086252D03*
X926560Y1086252D03*
X826560Y1086252D03*
X726560Y1086252D03*
X626560Y1086252D03*
X526560Y1086252D03*
X426560Y1086252D03*
X326560Y1086252D03*
X2226560Y979252D03*
X2126560Y979252D03*
X2026560Y979252D03*
X1926560Y979252D03*
X1826560Y979252D03*
X1726560Y979252D03*
X1626560Y979252D03*
X1526560Y979252D03*
X1426560Y979252D03*
X1326560Y979252D03*
X1226560Y979252D03*
X1126560Y979252D03*
X1026560Y979252D03*
X926560Y979252D03*
X826560Y979252D03*
X726560Y979252D03*
X626560Y979252D03*
X526560Y979252D03*
X426560Y979252D03*
X326560Y979252D03*
D11*
X1082640Y231221D03*
X1234430Y231221D03*
D12*
X92694Y762718D03*
D13*
X92694Y662732D03*
D12*
X92694Y562719D03*
D13*
X92694Y462719D03*
D14*
X1372220Y172170D03*
X1372220Y588872D03*
X2097000Y791671D03*
X1372220Y688897D03*
X1372230Y788945D03*
X1372220Y263884D03*
X2097000Y699963D03*
X2097000Y263884D03*
X2097000Y172170D03*
D15*
X442306Y802087D03*
X742306Y802087D03*
X651142Y399812D03*
X251142Y399812D03*
X244843Y487127D03*
X644843Y487127D03*
D16*
X889156Y810957D03*
X989341Y810957D03*
D15*
X651142Y683977D03*
X251142Y683977D03*
X651142Y281702D03*
X251142Y281702D03*
D16*
X899786Y311721D03*
X899786Y211536D03*
X248420Y802087D03*
X348605Y802087D03*
D15*
X244843Y183277D03*
X644843Y183277D03*
X244843Y585552D03*
X644843Y585552D03*
X1195060Y843032D03*
X1195060Y743032D03*
X1175380Y567441D03*
X1175380Y467441D03*
X921046Y506812D03*
X821046Y506812D03*
D17*
X2277740Y703662D03*
X2277740Y624922D03*
X2277740Y546181D03*
X2277740Y467441D03*
D18*
X520000Y606200D03*
X248000Y958200D03*
X744000Y894200D03*
X344000Y414200D03*
X488000Y286200D03*
X776000Y222200D03*
D19*
X1195060Y843032D03*
X1175380Y567441D03*
X921046Y506812D03*
D20*
X2270540Y455689D02*
X2104430Y184296D01*
D02*
X1362780Y778313D02*
X1187000Y580522D01*
D02*
X616742Y962188D02*
X504000Y766200D01*
X504000Y766200D02*
X256751Y499950D01*
D02*
X527768Y604915D02*
X627577Y588407D01*
D02*
X234808Y197614D02*
X184000Y270200D01*
X184000Y270200D02*
X201675Y339697D01*
D02*
X201675Y339697D02*
X240022Y386299D01*
D02*
X888748Y321878D02*
X869900Y339224D01*
D02*
X869900Y339224D02*
X309091Y339224D01*
D02*
X309091Y339224D02*
X263238Y387166D01*
D02*
X976990Y802446D02*
X936000Y774200D01*
X936000Y774200D02*
X904000Y742200D01*
X904000Y742200D02*
X668196Y687904D01*
D02*
X1064920Y246845D02*
X984000Y318200D01*
X984000Y318200D02*
X984000Y558200D01*
X984000Y558200D02*
X904000Y734200D01*
X904000Y734200D02*
X936000Y774200D01*
D02*
X662466Y268360D02*
X752544Y162230D01*
D02*
X752544Y162230D02*
X936000Y158200D01*
X936000Y158200D02*
X1144000Y174200D01*
X1144000Y174200D02*
X1144000Y286200D01*
X1144000Y286200D02*
X1064000Y310200D01*
X1064000Y310200D02*
X1016000Y350200D01*
X1016000Y350200D02*
X1048000Y846200D01*
X1048000Y846200D02*
X1032000Y862200D01*
X1032000Y862200D02*
X904000Y862200D01*
X904000Y862200D02*
X893330Y825365D01*
D02*
X1210880Y233039D02*
X1144000Y238200D01*
X1144000Y238200D02*
X1144000Y286200D01*
D02*
X98457Y769972D02*
X243102Y952035D01*
D02*
X97569Y670618D02*
X216000Y862200D01*
X216000Y862200D02*
X376000Y926200D01*
X376000Y926200D02*
X376000Y1022200D01*
X376000Y1022200D02*
X673526Y1038342D01*
D02*
X673526Y1038342D02*
X682893Y939468D01*
D02*
X682893Y939468D02*
X737673Y898887D01*
D02*
X726953Y793688D02*
X472000Y654200D01*
X472000Y654200D02*
X347705Y421148D01*
D02*
X1443440Y1076127D02*
X1480000Y1054200D01*
X1480000Y1054200D02*
X1480310Y998796D01*
D02*
X1480310Y998796D02*
X1464000Y926200D01*
X1464000Y926200D02*
X872000Y910200D01*
X872000Y910200D02*
X755748Y813292D01*
D02*
X2012290Y1072690D02*
X1976000Y1038200D01*
X1976000Y1038200D02*
X1578610Y1038495D01*
D02*
X1578610Y1038495D02*
X1576000Y926200D01*
X1576000Y926200D02*
X1431210Y831227D01*
D02*
X1431210Y831227D02*
X1424000Y654200D01*
X1424000Y654200D02*
X1272000Y614200D01*
X1272000Y614200D02*
X1240000Y590200D01*
X1240000Y590200D02*
X1240000Y430200D01*
X1240000Y430200D02*
X1263980Y349260D01*
D02*
X1263980Y349260D02*
X1283640Y290267D01*
D02*
X1283640Y290267D02*
X1288000Y286200D01*
X1288000Y286200D02*
X1304000Y206200D01*
X1304000Y206200D02*
X1288000Y158200D01*
X1288000Y158200D02*
X616000Y110200D01*
X616000Y110200D02*
X466848Y113170D01*
D02*
X466848Y113170D02*
X216000Y110200D01*
X216000Y110200D02*
X152000Y238200D01*
X152000Y238200D02*
X161094Y516375D01*
D02*
X161094Y516375D02*
X100363Y557522D01*
D02*
X93675Y453500D02*
X120000Y206200D01*
X120000Y206200D02*
X184000Y78200D01*
X184000Y78200D02*
X1208000Y78200D01*
X1208000Y78200D02*
X1416000Y110200D01*
X1416000Y110200D02*
X2072000Y926200D01*
X2072000Y926200D02*
X2072000Y1054200D01*
X2072000Y1054200D02*
X2109580Y1076280D01*
D02*
X630212Y192878D02*
X494583Y281880D01*
D02*
X884841Y212823D02*
X783845Y221524D01*
D02*
X924439Y489644D02*
X952000Y350200D01*
X952000Y350200D02*
X952000Y254200D01*
X952000Y254200D02*
X911401Y221027D01*
D21*
X90500Y792700D02*
X95500Y792700D01*
X85500Y791700D02*
X99500Y791700D01*
X82500Y790700D02*
X102500Y790700D01*
X80500Y789700D02*
X105500Y789700D01*
X78500Y788700D02*
X107500Y788700D01*
X76500Y787700D02*
X108500Y787700D01*
X75500Y786700D02*
X110500Y786700D01*
X73500Y785700D02*
X111500Y785700D01*
X72500Y784700D02*
X112500Y784700D01*
X71500Y783700D02*
X113500Y783700D01*
X70500Y782700D02*
X114500Y782700D01*
X69500Y781700D02*
X115500Y781700D01*
X69500Y780700D02*
X116500Y780700D01*
X68500Y779700D02*
X116500Y779700D01*
X67500Y778700D02*
X117500Y778700D01*
X67500Y777700D02*
X118500Y777700D01*
X66500Y776700D02*
X118500Y776700D01*
X66500Y775700D02*
X119500Y775700D01*
X65500Y774700D02*
X119500Y774700D01*
X65500Y773700D02*
X120500Y773700D01*
X64500Y772700D02*
X120500Y772700D01*
X64500Y771700D02*
X89500Y771700D01*
X96500Y771700D02*
X120500Y771700D01*
X64500Y770700D02*
X87500Y770700D01*
X98500Y770700D02*
X121500Y770700D01*
X64500Y769700D02*
X86500Y769700D01*
X99500Y769700D02*
X121500Y769700D01*
X63500Y768700D02*
X85500Y768700D01*
X100500Y768700D02*
X121500Y768700D01*
X63500Y767700D02*
X84500Y767700D01*
X101500Y767700D02*
X121500Y767700D01*
X63500Y766700D02*
X83500Y766700D01*
X101500Y766700D02*
X121500Y766700D01*
X63500Y765700D02*
X83500Y765700D01*
X102500Y765700D02*
X122500Y765700D01*
X63500Y764700D02*
X83500Y764700D01*
X102500Y764700D02*
X122500Y764700D01*
X63500Y763700D02*
X82500Y763700D01*
X102500Y763700D02*
X122500Y763700D01*
X63500Y762700D02*
X82500Y762700D01*
X102500Y762700D02*
X122500Y762700D01*
X63500Y761700D02*
X82500Y761700D01*
X102500Y761700D02*
X122500Y761700D01*
X63500Y760700D02*
X83500Y760700D01*
X102500Y760700D02*
X122500Y760700D01*
X63500Y759700D02*
X83500Y759700D01*
X102500Y759700D02*
X122500Y759700D01*
X63500Y758700D02*
X83500Y758700D01*
X101500Y758700D02*
X121500Y758700D01*
X63500Y757700D02*
X84500Y757700D01*
X101500Y757700D02*
X121500Y757700D01*
X63500Y756700D02*
X85500Y756700D01*
X100500Y756700D02*
X121500Y756700D01*
X64500Y755700D02*
X86500Y755700D01*
X99500Y755700D02*
X121500Y755700D01*
X64500Y754700D02*
X87500Y754700D01*
X97500Y754700D02*
X120500Y754700D01*
X64500Y753700D02*
X89500Y753700D01*
X95500Y753700D02*
X120500Y753700D01*
X65500Y752700D02*
X120500Y752700D01*
X65500Y751700D02*
X119500Y751700D01*
X65500Y750700D02*
X119500Y750700D01*
X66500Y749700D02*
X119500Y749700D01*
X66500Y748700D02*
X118500Y748700D01*
X67500Y747700D02*
X118500Y747700D01*
X67500Y746700D02*
X117500Y746700D01*
X68500Y745700D02*
X116500Y745700D01*
X69500Y744700D02*
X116500Y744700D01*
X69500Y743700D02*
X115500Y743700D01*
X70500Y742700D02*
X114500Y742700D01*
X71500Y741700D02*
X113500Y741700D01*
X72500Y740700D02*
X112500Y740700D01*
X73500Y739700D02*
X111500Y739700D01*
X75500Y738700D02*
X110500Y738700D01*
X76500Y737700D02*
X108500Y737700D01*
X78500Y736700D02*
X106500Y736700D01*
X80500Y735700D02*
X104500Y735700D01*
X83500Y734700D02*
X102500Y734700D01*
X86500Y733700D02*
X99500Y733700D01*
X89500Y692700D02*
X95500Y692700D01*
X85500Y691700D02*
X100500Y691700D01*
X82500Y690700D02*
X102500Y690700D01*
X80500Y689700D02*
X105500Y689700D01*
X78500Y688700D02*
X107500Y688700D01*
X76500Y687700D02*
X108500Y687700D01*
X75500Y686700D02*
X110500Y686700D01*
X73500Y685700D02*
X111500Y685700D01*
X72500Y684700D02*
X112500Y684700D01*
X71500Y683700D02*
X113500Y683700D01*
X70500Y682700D02*
X114500Y682700D01*
X69500Y681700D02*
X115500Y681700D01*
X69500Y680700D02*
X116500Y680700D01*
X68500Y679700D02*
X116500Y679700D01*
X67500Y678700D02*
X117500Y678700D01*
X67500Y677700D02*
X118500Y677700D01*
X66500Y676700D02*
X118500Y676700D01*
X66500Y675700D02*
X119500Y675700D01*
X65500Y674700D02*
X119500Y674700D01*
X65500Y673700D02*
X120500Y673700D01*
X64500Y672700D02*
X120500Y672700D01*
X64500Y671700D02*
X89500Y671700D01*
X96500Y671700D02*
X120500Y671700D01*
X64500Y670700D02*
X87500Y670700D01*
X98500Y670700D02*
X121500Y670700D01*
X64500Y669700D02*
X86500Y669700D01*
X99500Y669700D02*
X121500Y669700D01*
X63500Y668700D02*
X85500Y668700D01*
X100500Y668700D02*
X121500Y668700D01*
X63500Y667700D02*
X84500Y667700D01*
X101500Y667700D02*
X121500Y667700D01*
X63500Y666700D02*
X83500Y666700D01*
X101500Y666700D02*
X121500Y666700D01*
X63500Y665700D02*
X83500Y665700D01*
X102500Y665700D02*
X122500Y665700D01*
X63500Y664700D02*
X83500Y664700D01*
X102500Y664700D02*
X122500Y664700D01*
X63500Y663700D02*
X82500Y663700D01*
X102500Y663700D02*
X122500Y663700D01*
X63500Y662700D02*
X82500Y662700D01*
X102500Y662700D02*
X122500Y662700D01*
X63500Y661700D02*
X82500Y661700D01*
X102500Y661700D02*
X122500Y661700D01*
X63500Y660700D02*
X83500Y660700D01*
X102500Y660700D02*
X122500Y660700D01*
X63500Y659700D02*
X83500Y659700D01*
X102500Y659700D02*
X122500Y659700D01*
X63500Y658700D02*
X83500Y658700D01*
X101500Y658700D02*
X121500Y658700D01*
X63500Y657700D02*
X84500Y657700D01*
X101500Y657700D02*
X121500Y657700D01*
X63500Y656700D02*
X85500Y656700D01*
X100500Y656700D02*
X121500Y656700D01*
X64500Y655700D02*
X86500Y655700D01*
X99500Y655700D02*
X121500Y655700D01*
X64500Y654700D02*
X87500Y654700D01*
X97500Y654700D02*
X120500Y654700D01*
X64500Y653700D02*
X90500Y653700D01*
X95500Y653700D02*
X120500Y653700D01*
X65500Y652700D02*
X120500Y652700D01*
X65500Y651700D02*
X119500Y651700D01*
X65500Y650700D02*
X119500Y650700D01*
X66500Y649700D02*
X119500Y649700D01*
X66500Y648700D02*
X118500Y648700D01*
X67500Y647700D02*
X118500Y647700D01*
X67500Y646700D02*
X117500Y646700D01*
X68500Y645700D02*
X116500Y645700D01*
X69500Y644700D02*
X116500Y644700D01*
X70500Y643700D02*
X115500Y643700D01*
X70500Y642700D02*
X114500Y642700D01*
X71500Y641700D02*
X113500Y641700D01*
X72500Y640700D02*
X112500Y640700D01*
X74500Y639700D02*
X111500Y639700D01*
X75500Y638700D02*
X110500Y638700D01*
X76500Y637700D02*
X108500Y637700D01*
X78500Y636700D02*
X106500Y636700D01*
X80500Y635700D02*
X104500Y635700D01*
X83500Y634700D02*
X102500Y634700D01*
X86500Y633700D02*
X99500Y633700D01*
X90500Y592700D02*
X95500Y592700D01*
X85500Y591700D02*
X99500Y591700D01*
X82500Y590700D02*
X102500Y590700D01*
X80500Y589700D02*
X105500Y589700D01*
X78500Y588700D02*
X107500Y588700D01*
X76500Y587700D02*
X108500Y587700D01*
X75500Y586700D02*
X110500Y586700D01*
X73500Y585700D02*
X111500Y585700D01*
X72500Y584700D02*
X112500Y584700D01*
X71500Y583700D02*
X113500Y583700D01*
X70500Y582700D02*
X114500Y582700D01*
X69500Y581700D02*
X115500Y581700D01*
X69500Y580700D02*
X116500Y580700D01*
X68500Y579700D02*
X116500Y579700D01*
X67500Y578700D02*
X117500Y578700D01*
X67500Y577700D02*
X118500Y577700D01*
X66500Y576700D02*
X118500Y576700D01*
X66500Y575700D02*
X119500Y575700D01*
X65500Y574700D02*
X119500Y574700D01*
X65500Y573700D02*
X120500Y573700D01*
X64500Y572700D02*
X120500Y572700D01*
X64500Y571700D02*
X89500Y571700D01*
X96500Y571700D02*
X120500Y571700D01*
X64500Y570700D02*
X87500Y570700D01*
X98500Y570700D02*
X121500Y570700D01*
X64500Y569700D02*
X86500Y569700D01*
X99500Y569700D02*
X121500Y569700D01*
X63500Y568700D02*
X85500Y568700D01*
X100500Y568700D02*
X121500Y568700D01*
X63500Y567700D02*
X84500Y567700D01*
X101500Y567700D02*
X121500Y567700D01*
X63500Y566700D02*
X83500Y566700D01*
X101500Y566700D02*
X121500Y566700D01*
X63500Y565700D02*
X83500Y565700D01*
X102500Y565700D02*
X122500Y565700D01*
X63500Y564700D02*
X83500Y564700D01*
X102500Y564700D02*
X122500Y564700D01*
X63500Y563700D02*
X82500Y563700D01*
X102500Y563700D02*
X122500Y563700D01*
X63500Y562700D02*
X82500Y562700D01*
X102500Y562700D02*
X122500Y562700D01*
X63500Y561700D02*
X82500Y561700D01*
X102500Y561700D02*
X122500Y561700D01*
X63500Y560700D02*
X83500Y560700D01*
X102500Y560700D02*
X122500Y560700D01*
X63500Y559700D02*
X83500Y559700D01*
X102500Y559700D02*
X122500Y559700D01*
X63500Y558700D02*
X83500Y558700D01*
X101500Y558700D02*
X121500Y558700D01*
X63500Y557700D02*
X84500Y557700D01*
X100500Y557700D02*
X121500Y557700D01*
X63500Y556700D02*
X85500Y556700D01*
X100500Y556700D02*
X121500Y556700D01*
X64500Y555700D02*
X86500Y555700D01*
X99500Y555700D02*
X121500Y555700D01*
X64500Y554700D02*
X87500Y554700D01*
X97500Y554700D02*
X120500Y554700D01*
X64500Y553700D02*
X90500Y553700D01*
X95500Y553700D02*
X120500Y553700D01*
X65500Y552700D02*
X120500Y552700D01*
X65500Y551700D02*
X119500Y551700D01*
X65500Y550700D02*
X119500Y550700D01*
X66500Y549700D02*
X119500Y549700D01*
X66500Y548700D02*
X118500Y548700D01*
X67500Y547700D02*
X117500Y547700D01*
X67500Y546700D02*
X117500Y546700D01*
X68500Y545700D02*
X116500Y545700D01*
X69500Y544700D02*
X116500Y544700D01*
X70500Y543700D02*
X115500Y543700D01*
X70500Y542700D02*
X114500Y542700D01*
X71500Y541700D02*
X113500Y541700D01*
X72500Y540700D02*
X112500Y540700D01*
X74500Y539700D02*
X111500Y539700D01*
X75500Y538700D02*
X109500Y538700D01*
X76500Y537700D02*
X108500Y537700D01*
X78500Y536700D02*
X106500Y536700D01*
X80500Y535700D02*
X104500Y535700D01*
X83500Y534700D02*
X102500Y534700D01*
X86500Y533700D02*
X99500Y533700D01*
X89500Y492700D02*
X95500Y492700D01*
X85500Y491700D02*
X100500Y491700D01*
X82500Y490700D02*
X103500Y490700D01*
X80500Y489700D02*
X105500Y489700D01*
X78500Y488700D02*
X107500Y488700D01*
X76500Y487700D02*
X108500Y487700D01*
X74500Y486700D02*
X110500Y486700D01*
X73500Y485700D02*
X111500Y485700D01*
X72500Y484700D02*
X112500Y484700D01*
X71500Y483700D02*
X113500Y483700D01*
X70500Y482700D02*
X114500Y482700D01*
X69500Y481700D02*
X115500Y481700D01*
X69500Y480700D02*
X116500Y480700D01*
X68500Y479700D02*
X116500Y479700D01*
X67500Y478700D02*
X117500Y478700D01*
X67500Y477700D02*
X118500Y477700D01*
X66500Y476700D02*
X118500Y476700D01*
X66500Y475700D02*
X119500Y475700D01*
X65500Y474700D02*
X119500Y474700D01*
X65500Y473700D02*
X120500Y473700D01*
X64500Y472700D02*
X120500Y472700D01*
X64500Y471700D02*
X88500Y471700D01*
X96500Y471700D02*
X120500Y471700D01*
X64500Y470700D02*
X87500Y470700D01*
X98500Y470700D02*
X121500Y470700D01*
X64500Y469700D02*
X85500Y469700D01*
X99500Y469700D02*
X121500Y469700D01*
X63500Y468700D02*
X85500Y468700D01*
X100500Y468700D02*
X121500Y468700D01*
X63500Y467700D02*
X84500Y467700D01*
X101500Y467700D02*
X121500Y467700D01*
X63500Y466700D02*
X83500Y466700D01*
X101500Y466700D02*
X121500Y466700D01*
X63500Y465700D02*
X83500Y465700D01*
X102500Y465700D02*
X122500Y465700D01*
X63500Y464700D02*
X83500Y464700D01*
X102500Y464700D02*
X122500Y464700D01*
X63500Y463700D02*
X82500Y463700D01*
X102500Y463700D02*
X122500Y463700D01*
X63500Y462700D02*
X82500Y462700D01*
X102500Y462700D02*
X122500Y462700D01*
X63500Y461700D02*
X82500Y461700D01*
X102500Y461700D02*
X122500Y461700D01*
X63500Y460700D02*
X83500Y460700D01*
X102500Y460700D02*
X122500Y460700D01*
X63500Y459700D02*
X83500Y459700D01*
X102500Y459700D02*
X122500Y459700D01*
X63500Y458700D02*
X83500Y458700D01*
X101500Y458700D02*
X121500Y458700D01*
X63500Y457700D02*
X84500Y457700D01*
X100500Y457700D02*
X121500Y457700D01*
X63500Y456700D02*
X85500Y456700D01*
X100500Y456700D02*
X121500Y456700D01*
X64500Y455700D02*
X86500Y455700D01*
X99500Y455700D02*
X121500Y455700D01*
X64500Y454700D02*
X87500Y454700D01*
X97500Y454700D02*
X120500Y454700D01*
X64500Y453700D02*
X90500Y453700D01*
X95500Y453700D02*
X120500Y453700D01*
X65500Y452700D02*
X120500Y452700D01*
X65500Y451700D02*
X119500Y451700D01*
X65500Y450700D02*
X119500Y450700D01*
X66500Y449700D02*
X119500Y449700D01*
X66500Y448700D02*
X118500Y448700D01*
X67500Y447700D02*
X117500Y447700D01*
X67500Y446700D02*
X117500Y446700D01*
X68500Y445700D02*
X116500Y445700D01*
X69500Y444700D02*
X116500Y444700D01*
X70500Y443700D02*
X115500Y443700D01*
X70500Y442700D02*
X114500Y442700D01*
X71500Y441700D02*
X113500Y441700D01*
X72500Y440700D02*
X112500Y440700D01*
X74500Y439700D02*
X111500Y439700D01*
X75500Y438700D02*
X109500Y438700D01*
X76500Y437700D02*
X108500Y437700D01*
X78500Y436700D02*
X106500Y436700D01*
X80500Y435700D02*
X104500Y435700D01*
X83500Y434700D02*
X102500Y434700D01*
X86500Y433700D02*
X99500Y433700D01*
X1043500Y270700D02*
X1122500Y270700D01*
X1043500Y269700D02*
X1122500Y269700D01*
X1043500Y268700D02*
X1122500Y268700D01*
X1043500Y267700D02*
X1122500Y267700D01*
X1043500Y266700D02*
X1122500Y266700D01*
X1043500Y265700D02*
X1122500Y265700D01*
X1043500Y264700D02*
X1122500Y264700D01*
X1043500Y263700D02*
X1122500Y263700D01*
X1043500Y262700D02*
X1122500Y262700D01*
X1043500Y261700D02*
X1122500Y261700D01*
X1043500Y260700D02*
X1122500Y260700D01*
X1043500Y259700D02*
X1122500Y259700D01*
X1043500Y258700D02*
X1122500Y258700D01*
X1043500Y257700D02*
X1122500Y257700D01*
X1043500Y256700D02*
X1122500Y256700D01*
X1043500Y255700D02*
X1122500Y255700D01*
X1043500Y254700D02*
X1078500Y254700D01*
X1086500Y254700D02*
X1122500Y254700D01*
X1043500Y253700D02*
X1074500Y253700D01*
X1090500Y253700D02*
X1122500Y253700D01*
X1043500Y252700D02*
X1072500Y252700D01*
X1093500Y252700D02*
X1122500Y252700D01*
X1043500Y251700D02*
X1070500Y251700D01*
X1094500Y251700D02*
X1122500Y251700D01*
X1043500Y250700D02*
X1068500Y250700D01*
X1096500Y250700D02*
X1122500Y250700D01*
X1043500Y249700D02*
X1067500Y249700D01*
X1097500Y249700D02*
X1122500Y249700D01*
X1043500Y248700D02*
X1066500Y248700D01*
X1099500Y248700D02*
X1122500Y248700D01*
X1043500Y247700D02*
X1065500Y247700D01*
X1100500Y247700D02*
X1122500Y247700D01*
X1043500Y246700D02*
X1064500Y246700D01*
X1100500Y246700D02*
X1122500Y246700D01*
X1043500Y245700D02*
X1063500Y245700D01*
X1101500Y245700D02*
X1122500Y245700D01*
X1043500Y244700D02*
X1062500Y244700D01*
X1102500Y244700D02*
X1122500Y244700D01*
X1043500Y243700D02*
X1062500Y243700D01*
X1103500Y243700D02*
X1122500Y243700D01*
X1043500Y242700D02*
X1061500Y242700D01*
X1103500Y242700D02*
X1122500Y242700D01*
X1043500Y241700D02*
X1060500Y241700D01*
X1104500Y241700D02*
X1122500Y241700D01*
X1043500Y240700D02*
X1060500Y240700D01*
X1104500Y240700D02*
X1122500Y240700D01*
X1043500Y239700D02*
X1060500Y239700D01*
X1105500Y239700D02*
X1122500Y239700D01*
X1043500Y238700D02*
X1059500Y238700D01*
X1105500Y238700D02*
X1122500Y238700D01*
X1043500Y237700D02*
X1059500Y237700D01*
X1105500Y237700D02*
X1122500Y237700D01*
X1043500Y236700D02*
X1059500Y236700D01*
X1106500Y236700D02*
X1122500Y236700D01*
X1043500Y235700D02*
X1058500Y235700D01*
X1106500Y235700D02*
X1122500Y235700D01*
X1043500Y234700D02*
X1058500Y234700D01*
X1106500Y234700D02*
X1122500Y234700D01*
X1043500Y233700D02*
X1058500Y233700D01*
X1106500Y233700D02*
X1122500Y233700D01*
X1043500Y232700D02*
X1058500Y232700D01*
X1106500Y232700D02*
X1122500Y232700D01*
X1043500Y231700D02*
X1058500Y231700D01*
X1106500Y231700D02*
X1122500Y231700D01*
X1043500Y230700D02*
X1058500Y230700D01*
X1106500Y230700D02*
X1122500Y230700D01*
X1043500Y229700D02*
X1058500Y229700D01*
X1106500Y229700D02*
X1122500Y229700D01*
X1043500Y228700D02*
X1058500Y228700D01*
X1106500Y228700D02*
X1122500Y228700D01*
X1043500Y227700D02*
X1058500Y227700D01*
X1106500Y227700D02*
X1122500Y227700D01*
X1043500Y226700D02*
X1058500Y226700D01*
X1106500Y226700D02*
X1122500Y226700D01*
X1043500Y225700D02*
X1059500Y225700D01*
X1105500Y225700D02*
X1122500Y225700D01*
X1043500Y224700D02*
X1059500Y224700D01*
X1105500Y224700D02*
X1122500Y224700D01*
X1043500Y223700D02*
X1059500Y223700D01*
X1105500Y223700D02*
X1122500Y223700D01*
X1043500Y222700D02*
X1060500Y222700D01*
X1105500Y222700D02*
X1122500Y222700D01*
X1043500Y221700D02*
X1060500Y221700D01*
X1104500Y221700D02*
X1122500Y221700D01*
X1043500Y220700D02*
X1061500Y220700D01*
X1104500Y220700D02*
X1122500Y220700D01*
X1043500Y219700D02*
X1061500Y219700D01*
X1103500Y219700D02*
X1122500Y219700D01*
X1043500Y218700D02*
X1062500Y218700D01*
X1102500Y218700D02*
X1122500Y218700D01*
X1043500Y217700D02*
X1062500Y217700D01*
X1102500Y217700D02*
X1122500Y217700D01*
X1043500Y216700D02*
X1063500Y216700D01*
X1101500Y216700D02*
X1122500Y216700D01*
X1043500Y215700D02*
X1064500Y215700D01*
X1100500Y215700D02*
X1122500Y215700D01*
X1043500Y214700D02*
X1065500Y214700D01*
X1099500Y214700D02*
X1122500Y214700D01*
X1043500Y213700D02*
X1066500Y213700D01*
X1098500Y213700D02*
X1122500Y213700D01*
X1043500Y212700D02*
X1067500Y212700D01*
X1097500Y212700D02*
X1122500Y212700D01*
X1043500Y211700D02*
X1069500Y211700D01*
X1096500Y211700D02*
X1122500Y211700D01*
X1043500Y210700D02*
X1070500Y210700D01*
X1094500Y210700D02*
X1122500Y210700D01*
X1043500Y209700D02*
X1072500Y209700D01*
X1092500Y209700D02*
X1122500Y209700D01*
X1043500Y208700D02*
X1075500Y208700D01*
X1089500Y208700D02*
X1122500Y208700D01*
X1043500Y207700D02*
X1122500Y207700D01*
X1043500Y206700D02*
X1122500Y206700D01*
X1043500Y205700D02*
X1122500Y205700D01*
X1043500Y204700D02*
X1122500Y204700D01*
X1043500Y203700D02*
X1122500Y203700D01*
X1043500Y202700D02*
X1122500Y202700D01*
X1043500Y201700D02*
X1122500Y201700D01*
X1043500Y200700D02*
X1122500Y200700D01*
X1043500Y199700D02*
X1122500Y199700D01*
X1043500Y198700D02*
X1122500Y198700D01*
X1043500Y197700D02*
X1122500Y197700D01*
X1043500Y196700D02*
X1122500Y196700D01*
X1043500Y195700D02*
X1122500Y195700D01*
X1043500Y194700D02*
X1122500Y194700D01*
X1043500Y193700D02*
X1122500Y193700D01*
X1043500Y192700D02*
X1122500Y192700D01*
X1043500Y191700D02*
X1121500Y191700D01*
D02*
G04 End of Copper0*
M02*