G04 MADE WITH FRITZING*
G04 WWW.FRITZING.ORG*
G04 DOUBLE SIDED*
G04 HOLES PLATED*
G04 CONTOUR ON CENTER OF CONTOUR VECTOR*
%FSLAX26Y26*%
%MOIN*%
%ADD10C,0.069055*%
%ADD11C,0.090000*%
%ADD12C,0.070444*%
%ADD13C,0.085000*%
%ADD14C,0.080000*%
%ADD15C,0.057559*%
%ADD16C,0.049370*%
%ADD17R,0.085000X0.085000*%
%ADD18R,0.001000X0.001000*%
G04 MASK1*
%FSLAX26Y26*%
%MOIN*%
D10*
X2226560Y1086252D03*
X2126560Y1086252D03*
X2026560Y1086252D03*
X1926560Y1086252D03*
X1826560Y1086252D03*
X1726560Y1086252D03*
X1626560Y1086252D03*
X1526560Y1086252D03*
X1426560Y1086252D03*
X1326560Y1086252D03*
X1226560Y1086252D03*
X1126560Y1086252D03*
X1026560Y1086252D03*
X926560Y1086252D03*
X826560Y1086252D03*
X726560Y1086252D03*
X626560Y1086252D03*
X526560Y1086252D03*
X426560Y1086252D03*
X326560Y1086252D03*
X2226560Y979252D03*
X2126560Y979252D03*
X2026560Y979252D03*
X1926560Y979252D03*
X1826560Y979252D03*
X1726560Y979252D03*
X1626560Y979252D03*
X1526560Y979252D03*
X1426560Y979252D03*
X1326560Y979252D03*
X1226560Y979252D03*
X1126560Y979252D03*
X1026560Y979252D03*
X926560Y979252D03*
X826560Y979252D03*
X726560Y979252D03*
X626560Y979252D03*
X526560Y979252D03*
X426560Y979252D03*
X326560Y979252D03*
D11*
X1082640Y231221D03*
X1234430Y231221D03*
X1082640Y231221D03*
X1234430Y231221D03*
D12*
X1372220Y172170D03*
X1372220Y588872D03*
X2097000Y791671D03*
X1372220Y688897D03*
X1372230Y788945D03*
X1372220Y263884D03*
X2097000Y699963D03*
X2097000Y263884D03*
X2097000Y172170D03*
D13*
X442306Y802087D03*
X742306Y802087D03*
X651142Y399812D03*
X251142Y399812D03*
X244843Y487127D03*
X644843Y487127D03*
D14*
X889156Y810957D03*
X989341Y810957D03*
D13*
X651142Y683977D03*
X251142Y683977D03*
X651142Y281702D03*
X251142Y281702D03*
D14*
X899786Y311721D03*
X899786Y211536D03*
X248420Y802087D03*
X348605Y802087D03*
D13*
X244843Y183277D03*
X644843Y183277D03*
X244843Y585552D03*
X644843Y585552D03*
X1195060Y843032D03*
X1195060Y743032D03*
X1175380Y567441D03*
X1175380Y467441D03*
D15*
X2277740Y703662D03*
X2277740Y624922D03*
X2277740Y546181D03*
X2277740Y467441D03*
X2277740Y703662D03*
X2277740Y624922D03*
X2277740Y546181D03*
X2277740Y467441D03*
D13*
X921046Y506812D03*
X821046Y506812D03*
D16*
X520000Y606200D03*
X344000Y414200D03*
X248000Y958200D03*
X744000Y894200D03*
X776000Y222200D03*
X488000Y286200D03*
D17*
X1195060Y843032D03*
X1175380Y567441D03*
X921046Y506812D03*
D18*
X1038500Y275700D02*
X1127500Y275700D01*
X1038500Y274700D02*
X1127500Y274700D01*
X1038500Y273700D02*
X1127500Y273700D01*
X1038500Y272700D02*
X1127500Y272700D01*
X1038500Y271700D02*
X1127500Y271700D01*
X1038500Y270700D02*
X1127500Y270700D01*
X1038500Y269700D02*
X1127500Y269700D01*
X1038500Y268700D02*
X1127500Y268700D01*
X1038500Y267700D02*
X1127500Y267700D01*
X1038500Y266700D02*
X1127500Y266700D01*
X1038500Y265700D02*
X1127500Y265700D01*
X1038500Y264700D02*
X1127500Y264700D01*
X1038500Y263700D02*
X1127500Y263700D01*
X1038500Y262700D02*
X1127500Y262700D01*
X1038500Y261700D02*
X1127500Y261700D01*
X1038500Y260700D02*
X1127500Y260700D01*
X1038500Y259700D02*
X1127500Y259700D01*
X1038500Y258700D02*
X1127500Y258700D01*
X1038500Y257700D02*
X1127500Y257700D01*
X1038500Y256700D02*
X1127500Y256700D01*
X1038500Y255700D02*
X1127500Y255700D01*
X1038500Y254700D02*
X1127500Y254700D01*
X1038500Y253700D02*
X1127500Y253700D01*
X1038500Y252700D02*
X1127500Y252700D01*
X1038500Y251700D02*
X1127500Y251700D01*
X1038500Y250700D02*
X1127500Y250700D01*
X1038500Y249700D02*
X1078500Y249700D01*
X1086500Y249700D02*
X1127500Y249700D01*
X1038500Y248700D02*
X1075500Y248700D01*
X1090500Y248700D02*
X1127500Y248700D01*
X1038500Y247700D02*
X1073500Y247700D01*
X1092500Y247700D02*
X1127500Y247700D01*
X1038500Y246700D02*
X1071500Y246700D01*
X1093500Y246700D02*
X1127500Y246700D01*
X1038500Y245700D02*
X1070500Y245700D01*
X1094500Y245700D02*
X1127500Y245700D01*
X1038500Y244700D02*
X1069500Y244700D01*
X1096500Y244700D02*
X1127500Y244700D01*
X1038500Y243700D02*
X1068500Y243700D01*
X1096500Y243700D02*
X1127500Y243700D01*
X1038500Y242700D02*
X1067500Y242700D01*
X1097500Y242700D02*
X1127500Y242700D01*
X1038500Y241700D02*
X1066500Y241700D01*
X1098500Y241700D02*
X1127500Y241700D01*
X1038500Y240700D02*
X1065500Y240700D01*
X1099500Y240700D02*
X1127500Y240700D01*
X1038500Y239700D02*
X1065500Y239700D01*
X1099500Y239700D02*
X1127500Y239700D01*
X1038500Y238700D02*
X1064500Y238700D01*
X1100500Y238700D02*
X1127500Y238700D01*
X1038500Y237700D02*
X1064500Y237700D01*
X1100500Y237700D02*
X1127500Y237700D01*
X1038500Y236700D02*
X1064500Y236700D01*
X1100500Y236700D02*
X1127500Y236700D01*
X1038500Y235700D02*
X1063500Y235700D01*
X1101500Y235700D02*
X1127500Y235700D01*
X1038500Y234700D02*
X1063500Y234700D01*
X1101500Y234700D02*
X1127500Y234700D01*
X1038500Y233700D02*
X1063500Y233700D01*
X1101500Y233700D02*
X1127500Y233700D01*
X1038500Y232700D02*
X1063500Y232700D01*
X1101500Y232700D02*
X1127500Y232700D01*
X1038500Y231700D02*
X1063500Y231700D01*
X1101500Y231700D02*
X1127500Y231700D01*
X1038500Y230700D02*
X1063500Y230700D01*
X1101500Y230700D02*
X1127500Y230700D01*
X1038500Y229700D02*
X1063500Y229700D01*
X1101500Y229700D02*
X1127500Y229700D01*
X1038500Y228700D02*
X1063500Y228700D01*
X1101500Y228700D02*
X1127500Y228700D01*
X1038500Y227700D02*
X1063500Y227700D01*
X1101500Y227700D02*
X1127500Y227700D01*
X1038500Y226700D02*
X1064500Y226700D01*
X1101500Y226700D02*
X1127500Y226700D01*
X1038500Y225700D02*
X1064500Y225700D01*
X1100500Y225700D02*
X1127500Y225700D01*
X1038500Y224700D02*
X1064500Y224700D01*
X1100500Y224700D02*
X1127500Y224700D01*
X1038500Y223700D02*
X1065500Y223700D01*
X1100500Y223700D02*
X1127500Y223700D01*
X1038500Y222700D02*
X1065500Y222700D01*
X1099500Y222700D02*
X1127500Y222700D01*
X1038500Y221700D02*
X1066500Y221700D01*
X1099500Y221700D02*
X1127500Y221700D01*
X1038500Y220700D02*
X1066500Y220700D01*
X1098500Y220700D02*
X1127500Y220700D01*
X1038500Y219700D02*
X1067500Y219700D01*
X1097500Y219700D02*
X1127500Y219700D01*
X1038500Y218700D02*
X1068500Y218700D01*
X1096500Y218700D02*
X1127500Y218700D01*
X1038500Y217700D02*
X1069500Y217700D01*
X1095500Y217700D02*
X1127500Y217700D01*
X1038500Y216700D02*
X1070500Y216700D01*
X1094500Y216700D02*
X1127500Y216700D01*
X1038500Y215700D02*
X1072500Y215700D01*
X1093500Y215700D02*
X1127500Y215700D01*
X1038500Y214700D02*
X1073500Y214700D01*
X1091500Y214700D02*
X1127500Y214700D01*
X1038500Y213700D02*
X1076500Y213700D01*
X1088500Y213700D02*
X1127500Y213700D01*
X1038500Y212700D02*
X1127500Y212700D01*
X1038500Y211700D02*
X1127500Y211700D01*
X1038500Y210700D02*
X1127500Y210700D01*
X1038500Y209700D02*
X1127500Y209700D01*
X1038500Y208700D02*
X1127500Y208700D01*
X1038500Y207700D02*
X1127500Y207700D01*
X1038500Y206700D02*
X1127500Y206700D01*
X1038500Y205700D02*
X1127500Y205700D01*
X1038500Y204700D02*
X1127500Y204700D01*
X1038500Y203700D02*
X1127500Y203700D01*
X1038500Y202700D02*
X1127500Y202700D01*
X1038500Y201700D02*
X1127500Y201700D01*
X1038500Y200700D02*
X1127500Y200700D01*
X1038500Y199700D02*
X1127500Y199700D01*
X1038500Y198700D02*
X1127500Y198700D01*
X1038500Y197700D02*
X1127500Y197700D01*
X1038500Y196700D02*
X1127500Y196700D01*
X1038500Y195700D02*
X1127500Y195700D01*
X1038500Y194700D02*
X1127500Y194700D01*
X1038500Y193700D02*
X1127500Y193700D01*
X1038500Y192700D02*
X1127500Y192700D01*
X1038500Y191700D02*
X1127500Y191700D01*
X1038500Y190700D02*
X1127500Y190700D01*
X1038500Y189700D02*
X1127500Y189700D01*
X1038500Y188700D02*
X1127500Y188700D01*
X1038500Y187700D02*
X1127500Y187700D01*
X1038500Y186700D02*
X1126500Y186700D01*
D02*
G04 End of Mask1*
M02*