G04 MADE WITH FRITZING*
G04 WWW.FRITZING.ORG*
G04 DOUBLE SIDED*
G04 HOLES PLATED*
G04 CONTOUR ON CENTER OF CONTOUR VECTOR*
%FSLAX26Y26*%
%MOIN*%
%ADD10C,0.069055*%
%ADD11C,0.090000*%
%ADD12C,0.070444*%
%ADD13C,0.085000*%
%ADD14C,0.080000*%
%ADD15C,0.057559*%
%ADD16C,0.049370*%
%ADD17R,0.085000X0.085000*%
%ADD18R,0.001000X0.001000*%
G04 MASK0*
%FSLAX26Y26*%
%MOIN*%
D10*
X2226560Y1086252D03*
X2126560Y1086252D03*
X2026560Y1086252D03*
X1926560Y1086252D03*
X1826560Y1086252D03*
X1726560Y1086252D03*
X1626560Y1086252D03*
X1526560Y1086252D03*
X1426560Y1086252D03*
X1326560Y1086252D03*
X1226560Y1086252D03*
X1126560Y1086252D03*
X1026560Y1086252D03*
X926560Y1086252D03*
X826560Y1086252D03*
X726560Y1086252D03*
X626560Y1086252D03*
X526560Y1086252D03*
X426560Y1086252D03*
X326560Y1086252D03*
X2226560Y979252D03*
X2126560Y979252D03*
X2026560Y979252D03*
X1926560Y979252D03*
X1826560Y979252D03*
X1726560Y979252D03*
X1626560Y979252D03*
X1526560Y979252D03*
X1426560Y979252D03*
X1326560Y979252D03*
X1226560Y979252D03*
X1126560Y979252D03*
X1026560Y979252D03*
X926560Y979252D03*
X826560Y979252D03*
X726560Y979252D03*
X626560Y979252D03*
X526560Y979252D03*
X426560Y979252D03*
X326560Y979252D03*
D11*
X1082640Y231221D03*
X1234430Y231221D03*
D12*
X1372220Y172170D03*
X1372220Y588872D03*
X2097000Y791671D03*
X1372220Y688897D03*
X1372230Y788945D03*
X1372220Y263884D03*
X2097000Y699963D03*
X2097000Y263884D03*
X2097000Y172170D03*
D13*
X442306Y802087D03*
X742306Y802087D03*
X651142Y399812D03*
X251142Y399812D03*
X244843Y487127D03*
X644843Y487127D03*
D14*
X889156Y810957D03*
X989341Y810957D03*
D13*
X651142Y683977D03*
X251142Y683977D03*
X651142Y281702D03*
X251142Y281702D03*
D14*
X899786Y311721D03*
X899786Y211536D03*
X248420Y802087D03*
X348605Y802087D03*
D13*
X244843Y183277D03*
X644843Y183277D03*
X244843Y585552D03*
X644843Y585552D03*
X1195060Y843032D03*
X1195060Y743032D03*
X1175380Y567441D03*
X1175380Y467441D03*
X921046Y506812D03*
X821046Y506812D03*
D15*
X2277740Y703662D03*
X2277740Y624922D03*
X2277740Y546181D03*
X2277740Y467441D03*
D16*
X520000Y606200D03*
X248000Y958200D03*
X744000Y894200D03*
X344000Y414200D03*
X488000Y286200D03*
X776000Y222200D03*
D17*
X1195060Y843032D03*
X1175380Y567441D03*
X921046Y506812D03*
D18*
X90500Y797700D02*
X95500Y797700D01*
X84500Y796700D02*
X100500Y796700D01*
X81500Y795700D02*
X104500Y795700D01*
X78500Y794700D02*
X106500Y794700D01*
X76500Y793700D02*
X108500Y793700D01*
X75500Y792700D02*
X110500Y792700D01*
X73500Y791700D02*
X111500Y791700D01*
X72500Y790700D02*
X113500Y790700D01*
X70500Y789700D02*
X114500Y789700D01*
X69500Y788700D02*
X115500Y788700D01*
X68500Y787700D02*
X116500Y787700D01*
X67500Y786700D02*
X117500Y786700D01*
X66500Y785700D02*
X118500Y785700D01*
X65500Y784700D02*
X119500Y784700D01*
X65500Y783700D02*
X120500Y783700D01*
X64500Y782700D02*
X121500Y782700D01*
X63500Y781700D02*
X121500Y781700D01*
X63500Y780700D02*
X122500Y780700D01*
X62500Y779700D02*
X122500Y779700D01*
X61500Y778700D02*
X123500Y778700D01*
X61500Y777700D02*
X123500Y777700D01*
X60500Y776700D02*
X124500Y776700D01*
X60500Y775700D02*
X124500Y775700D01*
X60500Y774700D02*
X125500Y774700D01*
X59500Y773700D02*
X125500Y773700D01*
X59500Y772700D02*
X125500Y772700D01*
X59500Y771700D02*
X126500Y771700D01*
X59500Y770700D02*
X126500Y770700D01*
X58500Y769700D02*
X126500Y769700D01*
X58500Y768700D02*
X126500Y768700D01*
X58500Y767700D02*
X126500Y767700D01*
X58500Y766700D02*
X127500Y766700D01*
X58500Y765700D02*
X127500Y765700D01*
X58500Y764700D02*
X127500Y764700D01*
X58500Y763700D02*
X127500Y763700D01*
X58500Y762700D02*
X127500Y762700D01*
X58500Y761700D02*
X127500Y761700D01*
X58500Y760700D02*
X127500Y760700D01*
X58500Y759700D02*
X127500Y759700D01*
X58500Y758700D02*
X126500Y758700D01*
X58500Y757700D02*
X126500Y757700D01*
X58500Y756700D02*
X126500Y756700D01*
X58500Y755700D02*
X126500Y755700D01*
X59500Y754700D02*
X126500Y754700D01*
X59500Y753700D02*
X125500Y753700D01*
X59500Y752700D02*
X125500Y752700D01*
X59500Y751700D02*
X125500Y751700D01*
X60500Y750700D02*
X125500Y750700D01*
X60500Y749700D02*
X124500Y749700D01*
X61500Y748700D02*
X124500Y748700D01*
X61500Y747700D02*
X123500Y747700D01*
X62500Y746700D02*
X123500Y746700D01*
X62500Y745700D02*
X122500Y745700D01*
X63500Y744700D02*
X122500Y744700D01*
X63500Y743700D02*
X121500Y743700D01*
X64500Y742700D02*
X120500Y742700D01*
X65500Y741700D02*
X120500Y741700D01*
X65500Y740700D02*
X119500Y740700D01*
X66500Y739700D02*
X118500Y739700D01*
X67500Y738700D02*
X117500Y738700D01*
X68500Y737700D02*
X116500Y737700D01*
X69500Y736700D02*
X115500Y736700D01*
X70500Y735700D02*
X114500Y735700D01*
X72500Y734700D02*
X113500Y734700D01*
X73500Y733700D02*
X111500Y733700D01*
X75500Y732700D02*
X110500Y732700D01*
X77500Y731700D02*
X108500Y731700D01*
X79500Y730700D02*
X106500Y730700D01*
X81500Y729700D02*
X103500Y729700D01*
X85500Y728700D02*
X100500Y728700D01*
X89500Y697700D02*
X95500Y697700D01*
X84500Y696700D02*
X100500Y696700D01*
X81500Y695700D02*
X104500Y695700D01*
X78500Y694700D02*
X106500Y694700D01*
X76500Y693700D02*
X108500Y693700D01*
X74500Y692700D02*
X110500Y692700D01*
X73500Y691700D02*
X112500Y691700D01*
X72500Y690700D02*
X113500Y690700D01*
X70500Y689700D02*
X114500Y689700D01*
X69500Y688700D02*
X115500Y688700D01*
X68500Y687700D02*
X116500Y687700D01*
X67500Y686700D02*
X117500Y686700D01*
X66500Y685700D02*
X118500Y685700D01*
X65500Y684700D02*
X119500Y684700D01*
X65500Y683700D02*
X120500Y683700D01*
X64500Y682700D02*
X121500Y682700D01*
X63500Y681700D02*
X121500Y681700D01*
X63500Y680700D02*
X122500Y680700D01*
X62500Y679700D02*
X122500Y679700D01*
X61500Y678700D02*
X123500Y678700D01*
X61500Y677700D02*
X123500Y677700D01*
X60500Y676700D02*
X124500Y676700D01*
X60500Y675700D02*
X124500Y675700D01*
X60500Y674700D02*
X125500Y674700D01*
X59500Y673700D02*
X125500Y673700D01*
X59500Y672700D02*
X125500Y672700D01*
X59500Y671700D02*
X126500Y671700D01*
X59500Y670700D02*
X126500Y670700D01*
X58500Y669700D02*
X126500Y669700D01*
X58500Y668700D02*
X126500Y668700D01*
X58500Y667700D02*
X126500Y667700D01*
X58500Y666700D02*
X127500Y666700D01*
X58500Y665700D02*
X127500Y665700D01*
X58500Y664700D02*
X127500Y664700D01*
X58500Y663700D02*
X127500Y663700D01*
X58500Y662700D02*
X127500Y662700D01*
X58500Y661700D02*
X127500Y661700D01*
X58500Y660700D02*
X127500Y660700D01*
X58500Y659700D02*
X127500Y659700D01*
X58500Y658700D02*
X126500Y658700D01*
X58500Y657700D02*
X126500Y657700D01*
X58500Y656700D02*
X126500Y656700D01*
X58500Y655700D02*
X126500Y655700D01*
X59500Y654700D02*
X126500Y654700D01*
X59500Y653700D02*
X125500Y653700D01*
X59500Y652700D02*
X125500Y652700D01*
X59500Y651700D02*
X125500Y651700D01*
X60500Y650700D02*
X125500Y650700D01*
X60500Y649700D02*
X124500Y649700D01*
X61500Y648700D02*
X124500Y648700D01*
X61500Y647700D02*
X123500Y647700D01*
X62500Y646700D02*
X123500Y646700D01*
X62500Y645700D02*
X122500Y645700D01*
X63500Y644700D02*
X122500Y644700D01*
X63500Y643700D02*
X121500Y643700D01*
X64500Y642700D02*
X120500Y642700D01*
X65500Y641700D02*
X120500Y641700D01*
X66500Y640700D02*
X119500Y640700D01*
X66500Y639700D02*
X118500Y639700D01*
X67500Y638700D02*
X117500Y638700D01*
X68500Y637700D02*
X116500Y637700D01*
X69500Y636700D02*
X115500Y636700D01*
X70500Y635700D02*
X114500Y635700D01*
X72500Y634700D02*
X113500Y634700D01*
X73500Y633700D02*
X111500Y633700D01*
X75500Y632700D02*
X110500Y632700D01*
X77500Y631700D02*
X108500Y631700D01*
X79500Y630700D02*
X106500Y630700D01*
X81500Y629700D02*
X103500Y629700D01*
X85500Y628700D02*
X100500Y628700D01*
X89500Y597700D02*
X95500Y597700D01*
X84500Y596700D02*
X100500Y596700D01*
X81500Y595700D02*
X104500Y595700D01*
X78500Y594700D02*
X106500Y594700D01*
X76500Y593700D02*
X108500Y593700D01*
X74500Y592700D02*
X110500Y592700D01*
X73500Y591700D02*
X111500Y591700D01*
X72500Y590700D02*
X113500Y590700D01*
X70500Y589700D02*
X114500Y589700D01*
X69500Y588700D02*
X115500Y588700D01*
X68500Y587700D02*
X116500Y587700D01*
X67500Y586700D02*
X117500Y586700D01*
X66500Y585700D02*
X118500Y585700D01*
X65500Y584700D02*
X119500Y584700D01*
X65500Y583700D02*
X120500Y583700D01*
X64500Y582700D02*
X121500Y582700D01*
X63500Y581700D02*
X121500Y581700D01*
X63500Y580700D02*
X122500Y580700D01*
X62500Y579700D02*
X122500Y579700D01*
X61500Y578700D02*
X123500Y578700D01*
X61500Y577700D02*
X123500Y577700D01*
X60500Y576700D02*
X124500Y576700D01*
X60500Y575700D02*
X124500Y575700D01*
X60500Y574700D02*
X125500Y574700D01*
X59500Y573700D02*
X125500Y573700D01*
X59500Y572700D02*
X125500Y572700D01*
X59500Y571700D02*
X126500Y571700D01*
X59500Y570700D02*
X126500Y570700D01*
X58500Y569700D02*
X126500Y569700D01*
X58500Y568700D02*
X126500Y568700D01*
X58500Y567700D02*
X126500Y567700D01*
X58500Y566700D02*
X127500Y566700D01*
X58500Y565700D02*
X127500Y565700D01*
X58500Y564700D02*
X127500Y564700D01*
X58500Y563700D02*
X127500Y563700D01*
X58500Y562700D02*
X127500Y562700D01*
X58500Y561700D02*
X127500Y561700D01*
X58500Y560700D02*
X127500Y560700D01*
X58500Y559700D02*
X127500Y559700D01*
X58500Y558700D02*
X126500Y558700D01*
X58500Y557700D02*
X126500Y557700D01*
X58500Y556700D02*
X126500Y556700D01*
X58500Y555700D02*
X126500Y555700D01*
X59500Y554700D02*
X126500Y554700D01*
X59500Y553700D02*
X125500Y553700D01*
X59500Y552700D02*
X125500Y552700D01*
X59500Y551700D02*
X125500Y551700D01*
X60500Y550700D02*
X125500Y550700D01*
X60500Y549700D02*
X124500Y549700D01*
X61500Y548700D02*
X124500Y548700D01*
X61500Y547700D02*
X123500Y547700D01*
X62500Y546700D02*
X123500Y546700D01*
X62500Y545700D02*
X122500Y545700D01*
X63500Y544700D02*
X122500Y544700D01*
X63500Y543700D02*
X121500Y543700D01*
X64500Y542700D02*
X120500Y542700D01*
X65500Y541700D02*
X120500Y541700D01*
X66500Y540700D02*
X119500Y540700D01*
X66500Y539700D02*
X118500Y539700D01*
X67500Y538700D02*
X117500Y538700D01*
X68500Y537700D02*
X116500Y537700D01*
X69500Y536700D02*
X115500Y536700D01*
X71500Y535700D02*
X114500Y535700D01*
X72500Y534700D02*
X113500Y534700D01*
X73500Y533700D02*
X111500Y533700D01*
X75500Y532700D02*
X110500Y532700D01*
X77500Y531700D02*
X108500Y531700D01*
X79500Y530700D02*
X106500Y530700D01*
X81500Y529700D02*
X103500Y529700D01*
X85500Y528700D02*
X99500Y528700D01*
X89500Y497700D02*
X95500Y497700D01*
X84500Y496700D02*
X101500Y496700D01*
X80500Y495700D02*
X104500Y495700D01*
X78500Y494700D02*
X106500Y494700D01*
X76500Y493700D02*
X108500Y493700D01*
X74500Y492700D02*
X110500Y492700D01*
X73500Y491700D02*
X112500Y491700D01*
X71500Y490700D02*
X113500Y490700D01*
X70500Y489700D02*
X114500Y489700D01*
X69500Y488700D02*
X115500Y488700D01*
X68500Y487700D02*
X116500Y487700D01*
X67500Y486700D02*
X117500Y486700D01*
X66500Y485700D02*
X118500Y485700D01*
X65500Y484700D02*
X119500Y484700D01*
X65500Y483700D02*
X120500Y483700D01*
X64500Y482700D02*
X121500Y482700D01*
X63500Y481700D02*
X121500Y481700D01*
X63500Y480700D02*
X122500Y480700D01*
X62500Y479700D02*
X122500Y479700D01*
X61500Y478700D02*
X123500Y478700D01*
X61500Y477700D02*
X123500Y477700D01*
X60500Y476700D02*
X124500Y476700D01*
X60500Y475700D02*
X124500Y475700D01*
X60500Y474700D02*
X125500Y474700D01*
X59500Y473700D02*
X125500Y473700D01*
X59500Y472700D02*
X125500Y472700D01*
X59500Y471700D02*
X126500Y471700D01*
X59500Y470700D02*
X126500Y470700D01*
X58500Y469700D02*
X126500Y469700D01*
X58500Y468700D02*
X126500Y468700D01*
X58500Y467700D02*
X126500Y467700D01*
X58500Y466700D02*
X127500Y466700D01*
X58500Y465700D02*
X127500Y465700D01*
X58500Y464700D02*
X127500Y464700D01*
X58500Y463700D02*
X127500Y463700D01*
X58500Y462700D02*
X127500Y462700D01*
X58500Y461700D02*
X127500Y461700D01*
X58500Y460700D02*
X127500Y460700D01*
X58500Y459700D02*
X127500Y459700D01*
X58500Y458700D02*
X126500Y458700D01*
X58500Y457700D02*
X126500Y457700D01*
X58500Y456700D02*
X126500Y456700D01*
X58500Y455700D02*
X126500Y455700D01*
X59500Y454700D02*
X126500Y454700D01*
X59500Y453700D02*
X125500Y453700D01*
X59500Y452700D02*
X125500Y452700D01*
X59500Y451700D02*
X125500Y451700D01*
X60500Y450700D02*
X125500Y450700D01*
X60500Y449700D02*
X124500Y449700D01*
X61500Y448700D02*
X124500Y448700D01*
X61500Y447700D02*
X123500Y447700D01*
X62500Y446700D02*
X123500Y446700D01*
X62500Y445700D02*
X122500Y445700D01*
X63500Y444700D02*
X122500Y444700D01*
X63500Y443700D02*
X121500Y443700D01*
X64500Y442700D02*
X120500Y442700D01*
X65500Y441700D02*
X120500Y441700D01*
X66500Y440700D02*
X119500Y440700D01*
X66500Y439700D02*
X118500Y439700D01*
X67500Y438700D02*
X117500Y438700D01*
X68500Y437700D02*
X116500Y437700D01*
X69500Y436700D02*
X115500Y436700D01*
X71500Y435700D02*
X114500Y435700D01*
X72500Y434700D02*
X113500Y434700D01*
X73500Y433700D02*
X111500Y433700D01*
X75500Y432700D02*
X110500Y432700D01*
X77500Y431700D02*
X108500Y431700D01*
X79500Y430700D02*
X106500Y430700D01*
X81500Y429700D02*
X103500Y429700D01*
X85500Y428700D02*
X99500Y428700D01*
X1038500Y275700D02*
X1127500Y275700D01*
X1038500Y274700D02*
X1127500Y274700D01*
X1038500Y273700D02*
X1127500Y273700D01*
X1038500Y272700D02*
X1127500Y272700D01*
X1038500Y271700D02*
X1127500Y271700D01*
X1038500Y270700D02*
X1127500Y270700D01*
X1038500Y269700D02*
X1127500Y269700D01*
X1038500Y268700D02*
X1127500Y268700D01*
X1038500Y267700D02*
X1127500Y267700D01*
X1038500Y266700D02*
X1127500Y266700D01*
X1038500Y265700D02*
X1127500Y265700D01*
X1038500Y264700D02*
X1127500Y264700D01*
X1038500Y263700D02*
X1127500Y263700D01*
X1038500Y262700D02*
X1127500Y262700D01*
X1038500Y261700D02*
X1127500Y261700D01*
X1038500Y260700D02*
X1127500Y260700D01*
X1038500Y259700D02*
X1127500Y259700D01*
X1038500Y258700D02*
X1127500Y258700D01*
X1038500Y257700D02*
X1127500Y257700D01*
X1038500Y256700D02*
X1127500Y256700D01*
X1038500Y255700D02*
X1127500Y255700D01*
X1038500Y254700D02*
X1127500Y254700D01*
X1038500Y253700D02*
X1127500Y253700D01*
X1038500Y252700D02*
X1127500Y252700D01*
X1038500Y251700D02*
X1127500Y251700D01*
X1038500Y250700D02*
X1127500Y250700D01*
X1038500Y249700D02*
X1078500Y249700D01*
X1086500Y249700D02*
X1127500Y249700D01*
X1038500Y248700D02*
X1075500Y248700D01*
X1090500Y248700D02*
X1127500Y248700D01*
X1038500Y247700D02*
X1073500Y247700D01*
X1092500Y247700D02*
X1127500Y247700D01*
X1038500Y246700D02*
X1071500Y246700D01*
X1093500Y246700D02*
X1127500Y246700D01*
X1038500Y245700D02*
X1070500Y245700D01*
X1094500Y245700D02*
X1127500Y245700D01*
X1038500Y244700D02*
X1069500Y244700D01*
X1096500Y244700D02*
X1127500Y244700D01*
X1038500Y243700D02*
X1068500Y243700D01*
X1096500Y243700D02*
X1127500Y243700D01*
X1038500Y242700D02*
X1067500Y242700D01*
X1097500Y242700D02*
X1127500Y242700D01*
X1038500Y241700D02*
X1066500Y241700D01*
X1098500Y241700D02*
X1127500Y241700D01*
X1038500Y240700D02*
X1065500Y240700D01*
X1099500Y240700D02*
X1127500Y240700D01*
X1038500Y239700D02*
X1065500Y239700D01*
X1099500Y239700D02*
X1127500Y239700D01*
X1038500Y238700D02*
X1064500Y238700D01*
X1100500Y238700D02*
X1127500Y238700D01*
X1038500Y237700D02*
X1064500Y237700D01*
X1100500Y237700D02*
X1127500Y237700D01*
X1038500Y236700D02*
X1064500Y236700D01*
X1100500Y236700D02*
X1127500Y236700D01*
X1038500Y235700D02*
X1063500Y235700D01*
X1101500Y235700D02*
X1127500Y235700D01*
X1038500Y234700D02*
X1063500Y234700D01*
X1101500Y234700D02*
X1127500Y234700D01*
X1038500Y233700D02*
X1063500Y233700D01*
X1101500Y233700D02*
X1127500Y233700D01*
X1038500Y232700D02*
X1063500Y232700D01*
X1101500Y232700D02*
X1127500Y232700D01*
X1038500Y231700D02*
X1063500Y231700D01*
X1101500Y231700D02*
X1127500Y231700D01*
X1038500Y230700D02*
X1063500Y230700D01*
X1101500Y230700D02*
X1127500Y230700D01*
X1038500Y229700D02*
X1063500Y229700D01*
X1101500Y229700D02*
X1127500Y229700D01*
X1038500Y228700D02*
X1063500Y228700D01*
X1101500Y228700D02*
X1127500Y228700D01*
X1038500Y227700D02*
X1063500Y227700D01*
X1101500Y227700D02*
X1127500Y227700D01*
X1038500Y226700D02*
X1064500Y226700D01*
X1101500Y226700D02*
X1127500Y226700D01*
X1038500Y225700D02*
X1064500Y225700D01*
X1100500Y225700D02*
X1127500Y225700D01*
X1038500Y224700D02*
X1064500Y224700D01*
X1100500Y224700D02*
X1127500Y224700D01*
X1038500Y223700D02*
X1065500Y223700D01*
X1100500Y223700D02*
X1127500Y223700D01*
X1038500Y222700D02*
X1065500Y222700D01*
X1099500Y222700D02*
X1127500Y222700D01*
X1038500Y221700D02*
X1066500Y221700D01*
X1099500Y221700D02*
X1127500Y221700D01*
X1038500Y220700D02*
X1066500Y220700D01*
X1098500Y220700D02*
X1127500Y220700D01*
X1038500Y219700D02*
X1067500Y219700D01*
X1097500Y219700D02*
X1127500Y219700D01*
X1038500Y218700D02*
X1068500Y218700D01*
X1096500Y218700D02*
X1127500Y218700D01*
X1038500Y217700D02*
X1069500Y217700D01*
X1095500Y217700D02*
X1127500Y217700D01*
X1038500Y216700D02*
X1070500Y216700D01*
X1094500Y216700D02*
X1127500Y216700D01*
X1038500Y215700D02*
X1072500Y215700D01*
X1093500Y215700D02*
X1127500Y215700D01*
X1038500Y214700D02*
X1073500Y214700D01*
X1091500Y214700D02*
X1127500Y214700D01*
X1038500Y213700D02*
X1076500Y213700D01*
X1088500Y213700D02*
X1127500Y213700D01*
X1038500Y212700D02*
X1127500Y212700D01*
X1038500Y211700D02*
X1127500Y211700D01*
X1038500Y210700D02*
X1127500Y210700D01*
X1038500Y209700D02*
X1127500Y209700D01*
X1038500Y208700D02*
X1127500Y208700D01*
X1038500Y207700D02*
X1127500Y207700D01*
X1038500Y206700D02*
X1127500Y206700D01*
X1038500Y205700D02*
X1127500Y205700D01*
X1038500Y204700D02*
X1127500Y204700D01*
X1038500Y203700D02*
X1127500Y203700D01*
X1038500Y202700D02*
X1127500Y202700D01*
X1038500Y201700D02*
X1127500Y201700D01*
X1038500Y200700D02*
X1127500Y200700D01*
X1038500Y199700D02*
X1127500Y199700D01*
X1038500Y198700D02*
X1127500Y198700D01*
X1038500Y197700D02*
X1127500Y197700D01*
X1038500Y196700D02*
X1127500Y196700D01*
X1038500Y195700D02*
X1127500Y195700D01*
X1038500Y194700D02*
X1127500Y194700D01*
X1038500Y193700D02*
X1127500Y193700D01*
X1038500Y192700D02*
X1127500Y192700D01*
X1038500Y191700D02*
X1127500Y191700D01*
X1038500Y190700D02*
X1127500Y190700D01*
X1038500Y189700D02*
X1127500Y189700D01*
X1038500Y188700D02*
X1127500Y188700D01*
X1038500Y187700D02*
X1127500Y187700D01*
X1038500Y186700D02*
X1126500Y186700D01*
D02*
G04 End of Mask0*
M02*