; NON-PLATED HOLES START AT T1
; THROUGH (PLATED) HOLES START AT T100
M48
INCH
T100C0.035000
T101C0.015748
T102C0.039370
T103C0.027559
T104C0.018542
T105C0.018528
T106C0.030000
T107C0.047244
T108C0.028444
%
T100
X006511Y003998
X002511Y003998
X009210Y005068
X002448Y004871
X011950Y008430
X004423Y008020
X002448Y005855
X006448Y001832
X011950Y007430
X011753Y004674
X006511Y006839
X002511Y006839
X006448Y004871
X006511Y002817
X008210Y005068
X002448Y001832
X007423Y008020
X002511Y002817
X006448Y005855
X011753Y005674
T101
X004880Y002861
X002480Y009581
X003440Y004141
X007440Y008941
X007760Y002221
X005200Y006061
T102
X020265Y010862
X010265Y009792
X015265Y010862
X005265Y010862
X010265Y010862
X020265Y009792
X005265Y009792
X015265Y009792
X013265Y009792
X003265Y009792
X014265Y009792
X011265Y010862
X021265Y009792
X004265Y009792
X003265Y010862
X013265Y010862
X021265Y010862
X004265Y010862
X014265Y010862
X011265Y009792
X019265Y009792
X012265Y009792
X009265Y009792
X022265Y010862
X006265Y009792
X018265Y009792
X008265Y009792
X016265Y009792
X022265Y009792
X009265Y010862
X012265Y010862
X019265Y010862
X008265Y010862
X016265Y010862
X006265Y010862
X018265Y010862
X007265Y010862
X017265Y010862
X017265Y009792
X007265Y009792
T103
X022777Y005461
X022777Y007036
X022777Y004674
X022777Y006249
T104
X000926Y006627
X000926Y004627
T105
X000926Y007627
X000926Y005627
T106
X009893Y008109
X003486Y008020
X008891Y008109
X008997Y002115
X008997Y003117
X002484Y008020
T107
X012344Y002312
X010826Y002312
T108
X020970Y007916
X013722Y001721
X013722Y006888
X013722Y007889
X013722Y002638
X013722Y005888
X020970Y002638
X020970Y006999
X020970Y001721
T00
M30
