G04 MADE WITH FRITZING*
G04 WWW.FRITZING.ORG*
G04 DOUBLE SIDED*
G04 HOLES PLATED*
G04 CONTOUR ON CENTER OF CONTOUR VECTOR*
%FSLAX26Y26*%
%MOIN*%
%ADD10C,0.059055*%
%ADD11C,0.080000*%
%ADD12C,0.060444*%
%ADD13C,0.075000*%
%ADD14C,0.070000*%
%ADD15C,0.047559*%
%ADD16C,0.039370*%
%ADD17R,0.075000X0.075000*%
%ADD18C,0.016000*%
%ADD19R,0.001000X0.001000*%
G04 COPPER1*
%FSLAX26Y26*%
%MOIN*%
D10*
X2226560Y1086252D03*
X2126560Y1086252D03*
X2026560Y1086252D03*
X1926560Y1086252D03*
X1826560Y1086252D03*
X1726560Y1086252D03*
X1626560Y1086252D03*
X1526560Y1086252D03*
X1426560Y1086252D03*
X1326560Y1086252D03*
X1226560Y1086252D03*
X1126560Y1086252D03*
X1026560Y1086252D03*
X926560Y1086252D03*
X826560Y1086252D03*
X726560Y1086252D03*
X626560Y1086252D03*
X526560Y1086252D03*
X426560Y1086252D03*
X326560Y1086252D03*
X2226560Y979252D03*
X2126560Y979252D03*
X2026560Y979252D03*
X1926560Y979252D03*
X1826560Y979252D03*
X1726560Y979252D03*
X1626560Y979252D03*
X1526560Y979252D03*
X1426560Y979252D03*
X1326560Y979252D03*
X1226560Y979252D03*
X1126560Y979252D03*
X1026560Y979252D03*
X926560Y979252D03*
X826560Y979252D03*
X726560Y979252D03*
X626560Y979252D03*
X526560Y979252D03*
X426560Y979252D03*
X326560Y979252D03*
D11*
X1082640Y231221D03*
X1234430Y231221D03*
X1082640Y231221D03*
X1234430Y231221D03*
D12*
X1372220Y172170D03*
X1372220Y588872D03*
X2097000Y791671D03*
X1372220Y688897D03*
X1372230Y788945D03*
X1372220Y263884D03*
X2097000Y699963D03*
X2097000Y263884D03*
X2097000Y172170D03*
D13*
X442306Y802087D03*
X742306Y802087D03*
X651142Y399812D03*
X251142Y399812D03*
X244843Y487127D03*
X644843Y487127D03*
D14*
X889156Y810957D03*
X989341Y810957D03*
D13*
X651142Y683977D03*
X251142Y683977D03*
X651142Y281702D03*
X251142Y281702D03*
D14*
X899786Y311721D03*
X899786Y211536D03*
X248420Y802087D03*
X348605Y802087D03*
D13*
X244843Y183277D03*
X644843Y183277D03*
X244843Y585552D03*
X644843Y585552D03*
X1195060Y843032D03*
X1195060Y743032D03*
X1175380Y567441D03*
X1175380Y467441D03*
D15*
X2277740Y703662D03*
X2277740Y624922D03*
X2277740Y546181D03*
X2277740Y467441D03*
X2277740Y703662D03*
X2277740Y624922D03*
X2277740Y546181D03*
X2277740Y467441D03*
D13*
X921046Y506812D03*
X821046Y506812D03*
D16*
X520000Y606200D03*
X344000Y414200D03*
X248000Y958200D03*
X744000Y894200D03*
X776000Y222200D03*
X488000Y286200D03*
D17*
X1195060Y843032D03*
X1175380Y567441D03*
X921046Y506812D03*
D18*
X2265010Y630206D02*
X2110140Y694509D01*
D02*
X2270310Y534577D02*
X2104670Y275861D01*
D02*
X2265350Y709695D02*
X2109790Y785444D01*
D02*
X1364090Y600539D02*
X1205070Y828676D01*
D02*
X666799Y407630D02*
X712000Y430200D01*
X712000Y430200D02*
X712000Y718200D01*
X712000Y718200D02*
X680000Y734200D01*
X680000Y734200D02*
X680000Y1006200D01*
X680000Y1006200D02*
X637487Y1069880D01*
D02*
X428300Y959644D02*
X440756Y819518D01*
D02*
X810779Y492640D02*
X696000Y334200D01*
X696000Y334200D02*
X600000Y334200D01*
X600000Y334200D02*
X568000Y766200D01*
X568000Y766200D02*
X459133Y797283D01*
D02*
X644843Y504627D02*
X644843Y568052D01*
D02*
X358482Y790798D02*
X514815Y612126D01*
D02*
X1185270Y728525D02*
X984000Y430200D01*
X984000Y430200D02*
X840000Y430200D01*
X840000Y430200D02*
X840000Y142200D01*
X840000Y142200D02*
X616000Y118200D01*
X616000Y118200D02*
X592000Y142200D01*
X592000Y142200D02*
X521207Y598419D01*
D02*
X1160140Y458832D02*
X912845Y319100D01*
D02*
X1383130Y273014D02*
X2211460Y966614D01*
D02*
X252919Y964349D02*
X312000Y1038200D01*
X312000Y1038200D02*
X376000Y1038200D01*
X376000Y1038200D02*
X376000Y1118200D01*
X376000Y1118200D02*
X392000Y1134200D01*
X392000Y1134200D02*
X776000Y1134200D01*
X776000Y1134200D02*
X776000Y1054200D01*
X776000Y1054200D02*
X792000Y1038200D01*
X792000Y1038200D02*
X1784000Y1038200D01*
X1784000Y1038200D02*
X1813510Y1071515D01*
D02*
X751871Y894422D02*
X1880000Y926200D01*
X1880000Y926200D02*
X1880000Y1006200D01*
X1880000Y1006200D02*
X1912000Y1038200D01*
X1912000Y1038200D02*
X2184000Y1038200D01*
X2184000Y1038200D02*
X2213510Y1071515D01*
D02*
X339481Y407752D02*
X261186Y296033D01*
D02*
X245960Y603016D02*
X250024Y666513D01*
D02*
X248765Y787091D02*
X250739Y701472D01*
D02*
X308994Y1077362D02*
X200000Y1022200D01*
X200000Y1022200D02*
X200000Y910200D01*
X200000Y910200D02*
X242289Y815777D01*
D02*
X495874Y286200D02*
X520000Y286200D01*
X520000Y286200D02*
X256686Y572668D01*
D02*
X768451Y219960D02*
X661620Y188256D01*
D02*
X1358000Y172230D02*
X920000Y174200D01*
X920000Y174200D02*
X906928Y198345D01*
D02*
X1378800Y676284D02*
X1432000Y574200D01*
X1432000Y574200D02*
X1416000Y542200D01*
X1416000Y542200D02*
X1320000Y542200D01*
X1320000Y542200D02*
X1320000Y222200D01*
X1320000Y222200D02*
X1361960Y182005D01*
D02*
X2024180Y959710D02*
X2024000Y958200D01*
X2024000Y958200D02*
X1385370Y694327D01*
D19*
X1043500Y270700D02*
X1122500Y270700D01*
X1043500Y269700D02*
X1122500Y269700D01*
X1043500Y268700D02*
X1122500Y268700D01*
X1043500Y267700D02*
X1122500Y267700D01*
X1043500Y266700D02*
X1122500Y266700D01*
X1043500Y265700D02*
X1122500Y265700D01*
X1043500Y264700D02*
X1122500Y264700D01*
X1043500Y263700D02*
X1122500Y263700D01*
X1043500Y262700D02*
X1122500Y262700D01*
X1043500Y261700D02*
X1122500Y261700D01*
X1043500Y260700D02*
X1122500Y260700D01*
X1043500Y259700D02*
X1122500Y259700D01*
X1043500Y258700D02*
X1122500Y258700D01*
X1043500Y257700D02*
X1122500Y257700D01*
X1043500Y256700D02*
X1122500Y256700D01*
X1043500Y255700D02*
X1122500Y255700D01*
X1043500Y254700D02*
X1078500Y254700D01*
X1086500Y254700D02*
X1122500Y254700D01*
X1043500Y253700D02*
X1074500Y253700D01*
X1090500Y253700D02*
X1122500Y253700D01*
X1043500Y252700D02*
X1072500Y252700D01*
X1093500Y252700D02*
X1122500Y252700D01*
X1043500Y251700D02*
X1070500Y251700D01*
X1094500Y251700D02*
X1122500Y251700D01*
X1043500Y250700D02*
X1068500Y250700D01*
X1096500Y250700D02*
X1122500Y250700D01*
X1043500Y249700D02*
X1067500Y249700D01*
X1097500Y249700D02*
X1122500Y249700D01*
X1043500Y248700D02*
X1066500Y248700D01*
X1099500Y248700D02*
X1122500Y248700D01*
X1043500Y247700D02*
X1065500Y247700D01*
X1100500Y247700D02*
X1122500Y247700D01*
X1043500Y246700D02*
X1064500Y246700D01*
X1100500Y246700D02*
X1122500Y246700D01*
X1043500Y245700D02*
X1063500Y245700D01*
X1101500Y245700D02*
X1122500Y245700D01*
X1043500Y244700D02*
X1062500Y244700D01*
X1102500Y244700D02*
X1122500Y244700D01*
X1043500Y243700D02*
X1062500Y243700D01*
X1103500Y243700D02*
X1122500Y243700D01*
X1043500Y242700D02*
X1061500Y242700D01*
X1103500Y242700D02*
X1122500Y242700D01*
X1043500Y241700D02*
X1060500Y241700D01*
X1104500Y241700D02*
X1122500Y241700D01*
X1043500Y240700D02*
X1060500Y240700D01*
X1104500Y240700D02*
X1122500Y240700D01*
X1043500Y239700D02*
X1060500Y239700D01*
X1105500Y239700D02*
X1122500Y239700D01*
X1043500Y238700D02*
X1059500Y238700D01*
X1105500Y238700D02*
X1122500Y238700D01*
X1043500Y237700D02*
X1059500Y237700D01*
X1105500Y237700D02*
X1122500Y237700D01*
X1043500Y236700D02*
X1059500Y236700D01*
X1106500Y236700D02*
X1122500Y236700D01*
X1043500Y235700D02*
X1058500Y235700D01*
X1106500Y235700D02*
X1122500Y235700D01*
X1043500Y234700D02*
X1058500Y234700D01*
X1106500Y234700D02*
X1122500Y234700D01*
X1043500Y233700D02*
X1058500Y233700D01*
X1106500Y233700D02*
X1122500Y233700D01*
X1043500Y232700D02*
X1058500Y232700D01*
X1106500Y232700D02*
X1122500Y232700D01*
X1043500Y231700D02*
X1058500Y231700D01*
X1106500Y231700D02*
X1122500Y231700D01*
X1043500Y230700D02*
X1058500Y230700D01*
X1106500Y230700D02*
X1122500Y230700D01*
X1043500Y229700D02*
X1058500Y229700D01*
X1106500Y229700D02*
X1122500Y229700D01*
X1043500Y228700D02*
X1058500Y228700D01*
X1106500Y228700D02*
X1122500Y228700D01*
X1043500Y227700D02*
X1058500Y227700D01*
X1106500Y227700D02*
X1122500Y227700D01*
X1043500Y226700D02*
X1058500Y226700D01*
X1106500Y226700D02*
X1122500Y226700D01*
X1043500Y225700D02*
X1059500Y225700D01*
X1105500Y225700D02*
X1122500Y225700D01*
X1043500Y224700D02*
X1059500Y224700D01*
X1105500Y224700D02*
X1122500Y224700D01*
X1043500Y223700D02*
X1059500Y223700D01*
X1105500Y223700D02*
X1122500Y223700D01*
X1043500Y222700D02*
X1060500Y222700D01*
X1105500Y222700D02*
X1122500Y222700D01*
X1043500Y221700D02*
X1060500Y221700D01*
X1104500Y221700D02*
X1122500Y221700D01*
X1043500Y220700D02*
X1061500Y220700D01*
X1104500Y220700D02*
X1122500Y220700D01*
X1043500Y219700D02*
X1061500Y219700D01*
X1103500Y219700D02*
X1122500Y219700D01*
X1043500Y218700D02*
X1062500Y218700D01*
X1102500Y218700D02*
X1122500Y218700D01*
X1043500Y217700D02*
X1062500Y217700D01*
X1102500Y217700D02*
X1122500Y217700D01*
X1043500Y216700D02*
X1063500Y216700D01*
X1101500Y216700D02*
X1122500Y216700D01*
X1043500Y215700D02*
X1064500Y215700D01*
X1100500Y215700D02*
X1122500Y215700D01*
X1043500Y214700D02*
X1065500Y214700D01*
X1099500Y214700D02*
X1122500Y214700D01*
X1043500Y213700D02*
X1066500Y213700D01*
X1098500Y213700D02*
X1122500Y213700D01*
X1043500Y212700D02*
X1067500Y212700D01*
X1097500Y212700D02*
X1122500Y212700D01*
X1043500Y211700D02*
X1069500Y211700D01*
X1096500Y211700D02*
X1122500Y211700D01*
X1043500Y210700D02*
X1070500Y210700D01*
X1094500Y210700D02*
X1122500Y210700D01*
X1043500Y209700D02*
X1072500Y209700D01*
X1092500Y209700D02*
X1122500Y209700D01*
X1043500Y208700D02*
X1075500Y208700D01*
X1089500Y208700D02*
X1122500Y208700D01*
X1043500Y207700D02*
X1122500Y207700D01*
X1043500Y206700D02*
X1122500Y206700D01*
X1043500Y205700D02*
X1122500Y205700D01*
X1043500Y204700D02*
X1122500Y204700D01*
X1043500Y203700D02*
X1122500Y203700D01*
X1043500Y202700D02*
X1122500Y202700D01*
X1043500Y201700D02*
X1122500Y201700D01*
X1043500Y200700D02*
X1122500Y200700D01*
X1043500Y199700D02*
X1122500Y199700D01*
X1043500Y198700D02*
X1122500Y198700D01*
X1043500Y197700D02*
X1122500Y197700D01*
X1043500Y196700D02*
X1122500Y196700D01*
X1043500Y195700D02*
X1122500Y195700D01*
X1043500Y194700D02*
X1122500Y194700D01*
X1043500Y193700D02*
X1122500Y193700D01*
X1043500Y192700D02*
X1122500Y192700D01*
X1043500Y191700D02*
X1121500Y191700D01*
D02*
G04 End of Copper1*
M02*