G04 MADE WITH FRITZING*
G04 WWW.FRITZING.ORG*
G04 DOUBLE SIDED*
G04 HOLES PLATED*
G04 CONTOUR ON CENTER OF CONTOUR VECTOR*
%FSLAX26Y26*%
%MOIN*%
%ADD10C,0.047559*%
%ADD11C,0.059055*%
%ADD12C,0.080000*%
%ADD13C,0.075000*%
%ADD14C,0.070000*%
%ADD15C,0.039370*%
%ADD16C,0.079528*%
%ADD17C,0.078740*%
%ADD18C,0.079370*%
%ADD19R,0.075000X0.075000*%
%ADD20C,0.016000*%
%ADD21R,0.001000X0.001000*%
G04 COPPER1*
%FSLAX26Y26*%
%MOIN*%
D10*
X2306470Y717933D03*
X2306470Y639193D03*
X2306470Y560452D03*
X2306470Y481712D03*
X2306470Y717933D03*
X2306470Y639193D03*
X2306470Y560452D03*
X2306470Y481712D03*
D11*
X2227030Y1101791D03*
X2127030Y1101791D03*
X2027030Y1101791D03*
X1927030Y1101791D03*
X1827030Y1101791D03*
X1727030Y1101791D03*
X1627030Y1101791D03*
X1527030Y1101791D03*
X1427030Y1101791D03*
X1327030Y1101791D03*
X1227030Y1101791D03*
X1127030Y1101791D03*
X1027030Y1101791D03*
X927030Y1101791D03*
X827030Y1101791D03*
X727030Y1101791D03*
X627030Y1101791D03*
X527030Y1101791D03*
X427030Y1101791D03*
X327030Y1101791D03*
X2227030Y994791D03*
X2127030Y994791D03*
X2027030Y994791D03*
X1927030Y994791D03*
X1827030Y994791D03*
X1727030Y994791D03*
X1627030Y994791D03*
X1527030Y994791D03*
X1427030Y994791D03*
X1327030Y994791D03*
X1227030Y994791D03*
X1127030Y994791D03*
X1027030Y994791D03*
X927030Y994791D03*
X827030Y994791D03*
X727030Y994791D03*
X627030Y994791D03*
X527030Y994791D03*
X427030Y994791D03*
X327030Y994791D03*
D12*
X1227950Y196278D03*
X1076160Y196278D03*
X1227950Y196278D03*
X1076160Y196278D03*
D13*
X520251Y826200D03*
X820251Y826200D03*
X708440Y432489D03*
X308440Y432489D03*
X302151Y519811D03*
X702151Y519811D03*
D14*
X926759Y836043D03*
X1026940Y836043D03*
D13*
X708440Y716656D03*
X308440Y716656D03*
X708440Y314389D03*
X308440Y314389D03*
D14*
X889144Y316146D03*
X889144Y215961D03*
X306680Y836043D03*
X406865Y836043D03*
D13*
X302151Y215956D03*
X702151Y215956D03*
X302151Y618234D03*
X702151Y618234D03*
X1164740Y836349D03*
X1164740Y736349D03*
X959620Y550610D03*
X859620Y550610D03*
X1145050Y571869D03*
X1145050Y471869D03*
D15*
X552000Y653785D03*
X264000Y925785D03*
X744000Y909785D03*
D16*
X1440330Y175330D03*
D17*
X1440330Y265177D03*
X1440330Y589980D03*
X1440330Y688405D03*
X1440330Y786830D03*
X2168670Y786830D03*
X2168670Y698248D03*
X2168670Y265177D03*
X2168670Y176590D03*
D15*
X1361590Y550610D03*
D18*
X1440330Y373444D03*
X1440330Y265177D03*
X1440330Y589980D03*
X1440330Y688405D03*
X1440330Y786830D03*
X2168680Y786830D03*
X2168680Y698247D03*
X2168680Y265177D03*
X2168680Y176590D03*
X1440330Y176590D03*
D19*
X1164740Y836349D03*
X959620Y550610D03*
X1145050Y571869D03*
D20*
X692692Y440122D02*
X648000Y461785D01*
D02*
X648000Y461785D02*
X648000Y749785D01*
D02*
X648000Y749785D02*
X680000Y1021785D01*
D02*
X680000Y1021785D02*
X637900Y1085377D01*
D02*
X511783Y841515D02*
X436559Y977564D01*
D02*
X849470Y536355D02*
X728000Y365785D01*
D02*
X728000Y365785D02*
X616000Y413785D01*
D02*
X616000Y413785D02*
X616000Y781785D01*
D02*
X616000Y781785D02*
X536126Y818836D01*
D02*
X702151Y537311D02*
X702151Y600734D01*
D02*
X416209Y824309D02*
X547095Y659944D01*
D02*
X287805Y225978D02*
X248000Y253785D01*
D02*
X248000Y253785D02*
X248000Y349785D01*
D02*
X248000Y349785D02*
X298115Y418360D01*
D02*
X879009Y305088D02*
X744000Y157780D01*
D02*
X744000Y157780D02*
X396984Y156830D01*
D02*
X396984Y156830D02*
X317001Y206697D01*
D02*
X1130100Y462772D02*
X901958Y323944D01*
D02*
X265114Y933579D02*
X280000Y1037785D01*
D02*
X280000Y1037785D02*
X376000Y1053785D01*
D02*
X376000Y1053785D02*
X376000Y1133785D01*
D02*
X376000Y1133785D02*
X392000Y1149785D01*
D02*
X392000Y1149785D02*
X776000Y1149785D01*
D02*
X776000Y1149785D02*
X776000Y1069785D01*
D02*
X776000Y1069785D02*
X792000Y1053785D01*
D02*
X792000Y1053785D02*
X1784000Y1053785D01*
D02*
X1784000Y1053785D02*
X1813890Y1087133D01*
D02*
X751871Y910006D02*
X1880000Y941785D01*
D02*
X1880000Y941785D02*
X1880000Y1021785D01*
D02*
X1880000Y1021785D02*
X1912000Y1053785D01*
D02*
X1912000Y1053785D02*
X2184000Y1053785D01*
D02*
X2184000Y1053785D02*
X2213890Y1087133D01*
D02*
X311151Y1090161D02*
X219841Y1023294D01*
D02*
X219841Y1023294D02*
X216000Y877785D01*
D02*
X216000Y877785D02*
X293054Y842315D01*
D02*
X689812Y228365D02*
X314490Y605824D01*
D02*
X948950Y536740D02*
X712822Y229826D01*
D02*
X1233780Y403342D02*
X902323Y223126D01*
D02*
X1361220Y255183D02*
X1233780Y403342D01*
D02*
X1426480Y189310D02*
X1361220Y255183D01*
D02*
X2212600Y981405D02*
X1454760Y278562D01*
D02*
X1233670Y403395D02*
X1362060Y255806D01*
D02*
X902321Y223130D02*
X1233670Y403395D01*
D02*
X1362060Y255806D02*
X1426610Y189437D01*
D02*
X1479060Y846280D02*
X1499100Y836257D01*
D02*
X1499100Y836257D02*
X1499100Y638662D01*
D02*
X1499100Y638662D02*
X1455490Y602537D01*
D02*
X1182230Y836902D02*
X1479060Y846280D01*
D02*
X2294150Y724095D02*
X2186280Y778027D01*
D02*
X2293810Y644620D02*
X2186770Y690493D01*
D02*
X2179260Y451913D02*
X2169790Y284830D01*
D02*
X2295990Y551508D02*
X2179260Y451913D01*
D02*
X2304800Y468035D02*
X2276240Y234950D01*
D02*
X2276240Y234950D02*
X2185980Y185981D01*
D02*
X1420820Y685786D02*
X1076320Y639546D01*
D02*
X1076320Y639546D02*
X973540Y561217D01*
D02*
X1353750Y551379D02*
X1162470Y570160D01*
D21*
X1188500Y236470D02*
X1267500Y236470D01*
X1188500Y235470D02*
X1267500Y235470D01*
X1188500Y234470D02*
X1267500Y234470D01*
X1188500Y233470D02*
X1267500Y233470D01*
X1188500Y232470D02*
X1267500Y232470D01*
X1188500Y231470D02*
X1267500Y231470D01*
X1188500Y230470D02*
X1267500Y230470D01*
X1188500Y229470D02*
X1267500Y229470D01*
X1188500Y228470D02*
X1267500Y228470D01*
X1188500Y227470D02*
X1267500Y227470D01*
X1188500Y226470D02*
X1267500Y226470D01*
X1188500Y225470D02*
X1267500Y225470D01*
X1188500Y224470D02*
X1267500Y224470D01*
X1188500Y223470D02*
X1267500Y223470D01*
X1188500Y222470D02*
X1267500Y222470D01*
X1188500Y221470D02*
X1267500Y221470D01*
X1188500Y220470D02*
X1224500Y220470D01*
X1231500Y220470D02*
X1267500Y220470D01*
X1188500Y219470D02*
X1219500Y219470D01*
X1235500Y219470D02*
X1267500Y219470D01*
X1188500Y218470D02*
X1217500Y218470D01*
X1237500Y218470D02*
X1267500Y218470D01*
X1188500Y217470D02*
X1215500Y217470D01*
X1239500Y217470D02*
X1267500Y217470D01*
X1188500Y216470D02*
X1213500Y216470D01*
X1241500Y216470D02*
X1267500Y216470D01*
X1188500Y215470D02*
X1212500Y215470D01*
X1242500Y215470D02*
X1267500Y215470D01*
X1188500Y214470D02*
X1211500Y214470D01*
X1243500Y214470D02*
X1267500Y214470D01*
X1188500Y213470D02*
X1210500Y213470D01*
X1245500Y213470D02*
X1267500Y213470D01*
X1188500Y212470D02*
X1209500Y212470D01*
X1245500Y212470D02*
X1267500Y212470D01*
X1188500Y211470D02*
X1208500Y211470D01*
X1246500Y211470D02*
X1267500Y211470D01*
X1188500Y210470D02*
X1207500Y210470D01*
X1247500Y210470D02*
X1267500Y210470D01*
X1188500Y209470D02*
X1207500Y209470D01*
X1248500Y209470D02*
X1267500Y209470D01*
X1188500Y208470D02*
X1206500Y208470D01*
X1248500Y208470D02*
X1267500Y208470D01*
X1188500Y207470D02*
X1205500Y207470D01*
X1249500Y207470D02*
X1267500Y207470D01*
X1188500Y206470D02*
X1205500Y206470D01*
X1249500Y206470D02*
X1267500Y206470D01*
X1188500Y205470D02*
X1205500Y205470D01*
X1250500Y205470D02*
X1267500Y205470D01*
X1188500Y204470D02*
X1204500Y204470D01*
X1250500Y204470D02*
X1267500Y204470D01*
X1188500Y203470D02*
X1204500Y203470D01*
X1250500Y203470D02*
X1267500Y203470D01*
X1188500Y202470D02*
X1204500Y202470D01*
X1251500Y202470D02*
X1267500Y202470D01*
X1188500Y201470D02*
X1203500Y201470D01*
X1251500Y201470D02*
X1267500Y201470D01*
X1188500Y200470D02*
X1203500Y200470D01*
X1251500Y200470D02*
X1267500Y200470D01*
X1188500Y199470D02*
X1203500Y199470D01*
X1251500Y199470D02*
X1267500Y199470D01*
X1188500Y198470D02*
X1203500Y198470D01*
X1251500Y198470D02*
X1267500Y198470D01*
X1188500Y197470D02*
X1203500Y197470D01*
X1251500Y197470D02*
X1267500Y197470D01*
X1188500Y196470D02*
X1203500Y196470D01*
X1251500Y196470D02*
X1267500Y196470D01*
X1188500Y195470D02*
X1203500Y195470D01*
X1251500Y195470D02*
X1267500Y195470D01*
X1188500Y194470D02*
X1203500Y194470D01*
X1251500Y194470D02*
X1267500Y194470D01*
X1188500Y193470D02*
X1203500Y193470D01*
X1251500Y193470D02*
X1267500Y193470D01*
X1188500Y192470D02*
X1203500Y192470D01*
X1251500Y192470D02*
X1267500Y192470D01*
X1188500Y191470D02*
X1204500Y191470D01*
X1250500Y191470D02*
X1267500Y191470D01*
X1188500Y190470D02*
X1204500Y190470D01*
X1250500Y190470D02*
X1267500Y190470D01*
X1188500Y189470D02*
X1204500Y189470D01*
X1250500Y189470D02*
X1267500Y189470D01*
X1188500Y188470D02*
X1205500Y188470D01*
X1250500Y188470D02*
X1267500Y188470D01*
X1188500Y187470D02*
X1205500Y187470D01*
X1249500Y187470D02*
X1267500Y187470D01*
X1188500Y186470D02*
X1206500Y186470D01*
X1249500Y186470D02*
X1267500Y186470D01*
X1188500Y185470D02*
X1206500Y185470D01*
X1248500Y185470D02*
X1267500Y185470D01*
X1188500Y184470D02*
X1207500Y184470D01*
X1247500Y184470D02*
X1267500Y184470D01*
X1188500Y183470D02*
X1207500Y183470D01*
X1247500Y183470D02*
X1267500Y183470D01*
X1188500Y182470D02*
X1208500Y182470D01*
X1246500Y182470D02*
X1267500Y182470D01*
X1188500Y181470D02*
X1209500Y181470D01*
X1245500Y181470D02*
X1267500Y181470D01*
X1188500Y180470D02*
X1210500Y180470D01*
X1244500Y180470D02*
X1267500Y180470D01*
X1188500Y179470D02*
X1211500Y179470D01*
X1243500Y179470D02*
X1267500Y179470D01*
X1188500Y178470D02*
X1212500Y178470D01*
X1242500Y178470D02*
X1267500Y178470D01*
X1188500Y177470D02*
X1214500Y177470D01*
X1241500Y177470D02*
X1267500Y177470D01*
X1188500Y176470D02*
X1215500Y176470D01*
X1239500Y176470D02*
X1267500Y176470D01*
X1188500Y175470D02*
X1217500Y175470D01*
X1237500Y175470D02*
X1267500Y175470D01*
X1188500Y174470D02*
X1220500Y174470D01*
X1234500Y174470D02*
X1267500Y174470D01*
X1188500Y173470D02*
X1267500Y173470D01*
X1188500Y172470D02*
X1267500Y172470D01*
X1188500Y171470D02*
X1267500Y171470D01*
X1188500Y170470D02*
X1267500Y170470D01*
X1188500Y169470D02*
X1267500Y169470D01*
X1188500Y168470D02*
X1267500Y168470D01*
X1188500Y167470D02*
X1267500Y167470D01*
X1188500Y166470D02*
X1267500Y166470D01*
X1188500Y165470D02*
X1267500Y165470D01*
X1188500Y164470D02*
X1267500Y164470D01*
X1188500Y163470D02*
X1267500Y163470D01*
X1188500Y162470D02*
X1267500Y162470D01*
X1188500Y161470D02*
X1267500Y161470D01*
X1188500Y160470D02*
X1267500Y160470D01*
X1188500Y159470D02*
X1267500Y159470D01*
X1188500Y158470D02*
X1267500Y158470D01*
X1188500Y157470D02*
X1266500Y157470D01*
D02*
G04 End of Copper1*
M02*