; NON-PLATED HOLES START AT T1
; THROUGH (PLATED) HOLES START AT T100
M48
INCH
T1C0.118110
T100C0.015748
T101C0.030000
T102C0.038000
T103C0.039370
T104C0.035000
%
T1
X001401Y001358
X024223Y001371
X001401Y010426
X024236Y010426
T100
X019107Y008091
T101
X009558Y007375
X009656Y005192
X009558Y008377
X009558Y003948
X009656Y006194
X009558Y002946
T102
X024518Y005028
X024518Y006883
X024518Y007883
X024518Y004028
T103
X019346Y009947
X022058Y002651
X009346Y011017
X022346Y009947
X014774Y007867
X014346Y011017
X008346Y009947
X015346Y011017
X016346Y011017
X022058Y007867
X004346Y009947
X005346Y009947
X018346Y011017
X020346Y009947
X006346Y009947
X021346Y011017
X016346Y009947
X014346Y009947
X015346Y009947
X008346Y011017
X011231Y001174
X021346Y009947
X006346Y011017
X020346Y011017
X000995Y005308
X004346Y011017
X018346Y009947
X005346Y011017
X019346Y011017
X022058Y006981
X022346Y011017
X009346Y009947
X003346Y011017
X007346Y009947
X007884Y001174
X013346Y009947
X014774Y006883
X017346Y011017
X012346Y009947
X022058Y001765
X008967Y001174
X011346Y011017
X012313Y001174
X010346Y009947
X000995Y004225
X014774Y001666
X010346Y011017
X011346Y009947
X014774Y005899
X000995Y006391
X007346Y011017
X014774Y002651
X003346Y009947
X017346Y009947
X012346Y011017
X000995Y007375
X013346Y011017
T104
X011231Y005603
X004081Y003044
X008081Y006588
X004144Y004829
X011231Y003340
X008144Y003943
X004081Y005702
X008144Y007670
X011723Y008362
X004144Y007670
X008081Y005702
X012231Y003340
X011723Y007362
X004144Y003943
X012231Y005603
X008081Y003044
X008144Y004829
X004081Y006588
T00
M30
