G04 MADE WITH FRITZING*
G04 WWW.FRITZING.ORG*
G04 DOUBLE SIDED*
G04 HOLES PLATED*
G04 CONTOUR ON CENTER OF CONTOUR VECTOR*
%FSLAX26Y26*%
%MOIN*%
%ADD10C,0.039370*%
%ADD11C,0.078000*%
%ADD12C,0.079370*%
%ADD13C,0.059055*%
%ADD14C,0.075000*%
%ADD15C,0.070000*%
%ADD16R,0.078000X0.078000*%
%ADD17R,0.075000X0.075000*%
%ADD18C,0.016000*%
G04 COPPER1*
%FSLAX26Y26*%
%MOIN*%
D10*
X1910790Y809130D03*
D11*
X2451870Y502892D03*
X2451870Y402892D03*
X2451870Y788326D03*
X2451870Y688326D03*
D12*
X896744Y117460D03*
X788478Y117460D03*
X1123120Y117460D03*
X1231390Y117460D03*
X99500Y737537D03*
X99500Y639114D03*
X99500Y530848D03*
X99500Y422581D03*
X1477460Y166670D03*
X2205800Y176510D03*
X2205800Y265103D03*
X2205800Y698170D03*
X2205800Y786759D03*
X1477460Y786759D03*
X1477460Y688326D03*
X1477460Y589903D03*
X1477460Y265103D03*
D13*
X2234630Y1101714D03*
X2134630Y1101714D03*
X2034630Y1101714D03*
X1934630Y1101714D03*
X1834630Y1101714D03*
X1734630Y1101714D03*
X1634630Y1101714D03*
X1534630Y1101714D03*
X1434630Y1101714D03*
X1334630Y1101714D03*
X1234630Y1101714D03*
X1134630Y1101714D03*
X1034630Y1101714D03*
X934630Y1101714D03*
X834630Y1101714D03*
X734630Y1101714D03*
X634630Y1101714D03*
X534630Y1101714D03*
X434630Y1101714D03*
X334630Y1101714D03*
X2234630Y994714D03*
X2134630Y994714D03*
X2034630Y994714D03*
X1934630Y994714D03*
X1834630Y994714D03*
X1734630Y994714D03*
X1634630Y994714D03*
X1534630Y994714D03*
X1434630Y994714D03*
X1334630Y994714D03*
X1234630Y994714D03*
X1134630Y994714D03*
X1034630Y994714D03*
X934630Y994714D03*
X834630Y994714D03*
X734630Y994714D03*
X634630Y994714D03*
X534630Y994714D03*
X434630Y994714D03*
X334630Y994714D03*
D14*
X814467Y482903D03*
X414467Y482903D03*
X408178Y570226D03*
X808178Y570226D03*
D15*
X965644Y519248D03*
X965644Y619433D03*
D14*
X814467Y767070D03*
X414467Y767070D03*
X814456Y394326D03*
X414456Y394326D03*
D15*
X955800Y394814D03*
X955800Y294629D03*
X955800Y837726D03*
X955800Y737541D03*
D14*
X408167Y304470D03*
X808167Y304470D03*
X408178Y658803D03*
X808178Y658803D03*
X1172340Y836270D03*
X1172340Y736270D03*
X1223120Y334003D03*
X1123120Y334003D03*
X1223120Y560381D03*
X1123120Y560381D03*
D16*
X2451870Y502892D03*
X2451870Y788326D03*
D17*
X1172340Y836270D03*
X1223120Y334003D03*
X1223120Y560381D03*
D18*
X591600Y898892D02*
X1231600Y898892D01*
D02*
X447600Y386892D02*
X591600Y898892D01*
D02*
X431531Y390494D02*
X447595Y386890D01*
D02*
X1231600Y898892D02*
X1551600Y882892D01*
D02*
X1487600Y962892D02*
X1551600Y882892D01*
D02*
X1487600Y1074892D02*
X1487600Y962892D01*
D02*
X1452190Y1092821D02*
X1487600Y1074892D01*
D02*
X375622Y1033370D02*
X404462Y914681D01*
D02*
X342789Y1081126D02*
X375619Y1033369D01*
D02*
X341883Y1083413D02*
X342788Y1081128D01*
D02*
X404456Y914681D02*
X413279Y784528D01*
D02*
X2225480Y786884D02*
X2432860Y788204D01*
D02*
X2225470Y697383D02*
X2432880Y689084D01*
D02*
X2219960Y278783D02*
X2438200Y489692D01*
D02*
X1462750Y773671D02*
X1236200Y572011D01*
D02*
X808178Y587726D02*
X808178Y641305D01*
D02*
X942565Y730478D02*
X823613Y667035D01*
D02*
X1154840Y736373D02*
X970803Y737453D01*
D02*
X1189840Y836707D02*
X1366790Y841128D01*
D02*
X621290Y980242D02*
X566788Y921128D01*
D02*
X1542790Y633126D02*
X1493880Y600763D01*
D02*
X1545500Y846648D02*
X1542790Y633130D01*
D02*
X1366790Y841126D02*
X1545500Y846644D01*
D02*
X566789Y921126D02*
X470789Y601126D01*
D02*
X470789Y601126D02*
X423870Y577968D01*
D02*
X1491570Y180390D02*
X2006780Y681124D01*
D02*
X1491620Y278774D02*
X1974790Y745131D01*
D02*
X2006790Y969126D02*
X2020140Y981393D01*
D02*
X2006790Y681126D02*
X2006790Y969126D01*
D02*
X1894790Y1049126D02*
X2176640Y1052114D01*
D02*
X1878790Y969126D02*
X1894790Y1049126D01*
D02*
X1910790Y937126D02*
X1878790Y969126D01*
D02*
X1974790Y937126D02*
X1910790Y937126D01*
D02*
X1974790Y745126D02*
X1974790Y937126D01*
D02*
X2176640Y1052114D02*
X2220640Y1008561D01*
D02*
X1078790Y281126D02*
X1014790Y585126D01*
D02*
X1217960Y131860D02*
X1078780Y281124D01*
D02*
X1014790Y585126D02*
X977947Y610843D01*
D02*
X954081Y509693D02*
X827950Y405477D01*
D02*
X1113690Y134740D02*
X998783Y345124D01*
D02*
X886789Y345126D02*
X828932Y384483D01*
D02*
X998789Y345126D02*
X886789Y345126D01*
D02*
X437644Y975261D02*
X470788Y761128D01*
D02*
X358789Y713126D02*
X342789Y521126D01*
D02*
X470789Y713126D02*
X358789Y713126D01*
D02*
X470789Y761126D02*
X470789Y713126D01*
D02*
X342789Y249126D02*
X769161Y216209D01*
D02*
X325411Y343714D02*
X342785Y249125D01*
D02*
X325411Y412859D02*
X325411Y343715D01*
D02*
X335856Y521148D02*
X325419Y412866D01*
D02*
X342789Y521126D02*
X335852Y521141D01*
D02*
X769156Y216214D02*
X881176Y129510D01*
D02*
X1782790Y1145126D02*
X278789Y1145126D01*
D02*
X1819540Y1114352D02*
X1782790Y1145128D01*
D02*
X278789Y1145126D02*
X107431Y755558D01*
D02*
X940833Y295623D02*
X825623Y303304D01*
D02*
X1465980Y672334D02*
X1233330Y348215D01*
D02*
X197522Y530726D02*
X310792Y201123D01*
D02*
X112703Y624514D02*
X197513Y530729D01*
D02*
X592111Y77790D02*
X726788Y57130D01*
D02*
X483567Y106740D02*
X592111Y77790D01*
D02*
X310789Y201126D02*
X483568Y106730D01*
D02*
X1286790Y169130D02*
X1905290Y803488D01*
D02*
X1286790Y73130D02*
X1286790Y169130D01*
D02*
X1270790Y57130D02*
X1286790Y73130D01*
D02*
X726789Y57130D02*
X1270790Y57130D01*
D02*
X2149250Y1114896D02*
X2182790Y1145128D01*
D02*
X2278790Y953126D02*
X2127810Y884424D01*
D02*
X2278790Y1145126D02*
X2278790Y953126D01*
D02*
X2182790Y1145126D02*
X2278790Y1145126D01*
D02*
X1516240Y98000D02*
X1302790Y25120D01*
D02*
X2038790Y649126D02*
X1516240Y98000D01*
D02*
X2127810Y884426D02*
X2038790Y649127D01*
D02*
X1302790Y25130D02*
X694789Y25130D01*
D02*
X552600Y29240D02*
X294783Y137130D01*
D02*
X294789Y137130D02*
X110620Y406332D01*
D02*
X694789Y25130D02*
X552606Y29230D01*
G04 End of Copper1*
M02*