; NON-PLATED HOLES START AT T1
; THROUGH (PLATED) HOLES START AT T100
M48
INCH
T1C0.118110
T100C0.015748
T101C0.047244
T102C0.018528
T103C0.027559
T104C0.018542
T105C0.039370
T106C0.030000
T107C0.035000
%
T1
X001325Y010427
X024147Y001372
X001325Y001359
X024160Y010427
T100
X005520Y006537
X013615Y005506
X007440Y009097
X002640Y009257
T101
X010761Y001962
X012279Y001962
T102
X000820Y005671
X000820Y007671
T103
X023064Y004817
X023064Y005604
X023064Y007179
X023064Y006391
T104
X000820Y006671
X000820Y004671
T105
X017270Y011017
X003270Y009947
X022270Y011017
X020270Y009947
X014403Y005899
X018270Y011017
X009270Y009947
X019270Y011017
X008270Y009947
X021270Y009947
X013270Y011017
X014403Y006884
X005270Y009947
X014270Y011017
X011270Y011017
X007270Y011017
X006270Y011017
X016270Y009947
X017270Y009947
X010270Y011017
X004270Y009947
X012270Y009947
X014403Y007868
X021686Y001765
X015270Y011017
X009270Y011017
X018270Y009947
X020270Y011017
X022270Y009947
X003270Y011017
X013270Y009947
X021270Y011017
X014403Y003734
X008270Y011017
X019270Y009947
X007270Y009947
X006270Y009947
X014403Y002651
X011270Y009947
X014270Y009947
X014403Y001765
X014403Y001753
X021686Y002651
X005270Y011017
X015270Y009947
X021686Y007868
X012270Y011017
X021686Y006982
X004270Y011017
X016270Y011017
X010270Y009947
T106
X008891Y003161
X004068Y008360
X009267Y008360
X003066Y008360
X008891Y002159
X010269Y008360
T107
X011647Y008363
X011450Y004718
X011450Y005718
X003021Y005198
X007021Y005198
X007084Y003143
X011647Y007363
X007084Y007166
X003084Y004324
X008202Y008262
X009596Y005506
X007021Y002159
X007021Y006182
X008596Y005506
X003021Y002159
X003021Y006182
X003084Y007166
X007084Y004324
X003084Y003143
X005202Y008262
T00
M30
