G04 MADE WITH FRITZING*
G04 WWW.FRITZING.ORG*
G04 DOUBLE SIDED*
G04 HOLES PLATED*
G04 CONTOUR ON CENTER OF CONTOUR VECTOR*
%FSLAX26Y26*%
%MOIN*%
%ADD10C,0.057559*%
%ADD11C,0.069055*%
%ADD12C,0.090000*%
%ADD13C,0.085000*%
%ADD14C,0.080000*%
%ADD15C,0.128110*%
%ADD16C,0.049370*%
%ADD17C,0.089528*%
%ADD18C,0.088740*%
%ADD19C,0.089370*%
%ADD20R,0.085000X0.085000*%
%ADD21R,0.001000X0.001000*%
G04 MASK0*
%FSLAX26Y26*%
%MOIN*%
D10*
X2306470Y717933D03*
X2306470Y639193D03*
X2306470Y560452D03*
X2306470Y481712D03*
D11*
X2227030Y1101791D03*
X2127030Y1101791D03*
X2027030Y1101791D03*
X1927030Y1101791D03*
X1827030Y1101791D03*
X1727030Y1101791D03*
X1627030Y1101791D03*
X1527030Y1101791D03*
X1427030Y1101791D03*
X1327030Y1101791D03*
X1227030Y1101791D03*
X1127030Y1101791D03*
X1027030Y1101791D03*
X927030Y1101791D03*
X827030Y1101791D03*
X727030Y1101791D03*
X627030Y1101791D03*
X527030Y1101791D03*
X427030Y1101791D03*
X327030Y1101791D03*
X2227030Y994791D03*
X2127030Y994791D03*
X2027030Y994791D03*
X1927030Y994791D03*
X1827030Y994791D03*
X1727030Y994791D03*
X1627030Y994791D03*
X1527030Y994791D03*
X1427030Y994791D03*
X1327030Y994791D03*
X1227030Y994791D03*
X1127030Y994791D03*
X1027030Y994791D03*
X927030Y994791D03*
X827030Y994791D03*
X727030Y994791D03*
X627030Y994791D03*
X527030Y994791D03*
X427030Y994791D03*
X327030Y994791D03*
D12*
X1227950Y196278D03*
X1076160Y196278D03*
D13*
X520251Y826200D03*
X820251Y826200D03*
X708440Y432489D03*
X308440Y432489D03*
X302151Y519811D03*
X702151Y519811D03*
D14*
X926759Y836043D03*
X1026940Y836043D03*
D13*
X708440Y716656D03*
X308440Y716656D03*
X708440Y314389D03*
X308440Y314389D03*
D14*
X889144Y316146D03*
X889144Y215961D03*
X306680Y836043D03*
X406865Y836043D03*
D13*
X302151Y215956D03*
X702151Y215956D03*
X302151Y618234D03*
X702151Y618234D03*
X1164740Y836349D03*
X1164740Y736349D03*
X959620Y550610D03*
X859620Y550610D03*
X1145050Y571869D03*
X1145050Y471869D03*
D15*
X2416010Y1042736D03*
X132543Y1042736D03*
X132543Y135960D03*
X2414740Y137220D03*
D16*
X552000Y653785D03*
X264000Y925785D03*
X744000Y909785D03*
D17*
X1440330Y175330D03*
D18*
X1440330Y265177D03*
X1440330Y589980D03*
X1440330Y688405D03*
X1440330Y786830D03*
X2168670Y786830D03*
X2168670Y698248D03*
X2168670Y265177D03*
X2168670Y176590D03*
D16*
X1361590Y550610D03*
D19*
X1440330Y373444D03*
X1440330Y786830D03*
X1440330Y265177D03*
X1440330Y589980D03*
X1440330Y688405D03*
X1440330Y176590D03*
X2168680Y786830D03*
X2168680Y698247D03*
X2168680Y265177D03*
X2168680Y176590D03*
D20*
X1164740Y836349D03*
X959620Y550610D03*
X1145050Y571869D03*
D21*
X81500Y802470D02*
X82500Y802470D01*
X74500Y801470D02*
X89500Y801470D01*
X70500Y800470D02*
X93500Y800470D01*
X68500Y799470D02*
X95500Y799470D01*
X66500Y798470D02*
X97500Y798470D01*
X64500Y797470D02*
X99500Y797470D01*
X62500Y796470D02*
X101500Y796470D01*
X61500Y795470D02*
X102500Y795470D01*
X60500Y794470D02*
X103500Y794470D01*
X59500Y793470D02*
X105500Y793470D01*
X57500Y792470D02*
X106500Y792470D01*
X56500Y791470D02*
X107500Y791470D01*
X56500Y790470D02*
X107500Y790470D01*
X55500Y789470D02*
X108500Y789470D01*
X54500Y788470D02*
X109500Y788470D01*
X53500Y787470D02*
X110500Y787470D01*
X53500Y786470D02*
X110500Y786470D01*
X52500Y785470D02*
X111500Y785470D01*
X51500Y784470D02*
X112500Y784470D01*
X51500Y783470D02*
X112500Y783470D01*
X50500Y782470D02*
X113500Y782470D01*
X50500Y781470D02*
X113500Y781470D01*
X49500Y780470D02*
X114500Y780470D01*
X49500Y779470D02*
X114500Y779470D01*
X49500Y778470D02*
X114500Y778470D01*
X48500Y777470D02*
X115500Y777470D01*
X48500Y776470D02*
X115500Y776470D01*
X48500Y775470D02*
X115500Y775470D01*
X48500Y774470D02*
X115500Y774470D01*
X48500Y773470D02*
X116500Y773470D01*
X47500Y772470D02*
X116500Y772470D01*
X47500Y771470D02*
X116500Y771470D01*
X47500Y770470D02*
X116500Y770470D01*
X47500Y769470D02*
X116500Y769470D01*
X47500Y768470D02*
X116500Y768470D01*
X47500Y767470D02*
X116500Y767470D01*
X47500Y766470D02*
X116500Y766470D01*
X47500Y765470D02*
X116500Y765470D01*
X47500Y764470D02*
X116500Y764470D01*
X47500Y763470D02*
X116500Y763470D01*
X47500Y762470D02*
X116500Y762470D01*
X48500Y761470D02*
X115500Y761470D01*
X48500Y760470D02*
X115500Y760470D01*
X48500Y759470D02*
X115500Y759470D01*
X48500Y758470D02*
X115500Y758470D01*
X48500Y757470D02*
X115500Y757470D01*
X49500Y756470D02*
X114500Y756470D01*
X49500Y755470D02*
X114500Y755470D01*
X49500Y754470D02*
X114500Y754470D01*
X50500Y753470D02*
X113500Y753470D01*
X50500Y752470D02*
X113500Y752470D01*
X51500Y751470D02*
X112500Y751470D01*
X51500Y750470D02*
X112500Y750470D01*
X52500Y749470D02*
X111500Y749470D01*
X53500Y748470D02*
X110500Y748470D01*
X53500Y747470D02*
X110500Y747470D01*
X54500Y746470D02*
X109500Y746470D01*
X55500Y745470D02*
X108500Y745470D01*
X56500Y744470D02*
X107500Y744470D01*
X57500Y743470D02*
X107500Y743470D01*
X57500Y742470D02*
X106500Y742470D01*
X59500Y741470D02*
X104500Y741470D01*
X60500Y740470D02*
X103500Y740470D01*
X61500Y739470D02*
X102500Y739470D01*
X62500Y738470D02*
X101500Y738470D01*
X64500Y737470D02*
X99500Y737470D01*
X66500Y736470D02*
X97500Y736470D01*
X68500Y735470D02*
X95500Y735470D01*
X70500Y734470D02*
X93500Y734470D01*
X74500Y733470D02*
X89500Y733470D01*
X81500Y732470D02*
X82500Y732470D01*
X79500Y702470D02*
X84500Y702470D01*
X73500Y701470D02*
X90500Y701470D01*
X70500Y700470D02*
X93500Y700470D01*
X67500Y699470D02*
X96500Y699470D01*
X65500Y698470D02*
X98500Y698470D01*
X64500Y697470D02*
X99500Y697470D01*
X62500Y696470D02*
X101500Y696470D01*
X61500Y695470D02*
X102500Y695470D01*
X60500Y694470D02*
X103500Y694470D01*
X58500Y693470D02*
X105500Y693470D01*
X57500Y692470D02*
X106500Y692470D01*
X56500Y691470D02*
X107500Y691470D01*
X56500Y690470D02*
X108500Y690470D01*
X55500Y689470D02*
X108500Y689470D01*
X54500Y688470D02*
X109500Y688470D01*
X53500Y687470D02*
X110500Y687470D01*
X53500Y686470D02*
X110500Y686470D01*
X52500Y685470D02*
X111500Y685470D01*
X51500Y684470D02*
X112500Y684470D01*
X51500Y683470D02*
X112500Y683470D01*
X50500Y682470D02*
X113500Y682470D01*
X50500Y681470D02*
X113500Y681470D01*
X49500Y680470D02*
X114500Y680470D01*
X49500Y679470D02*
X114500Y679470D01*
X49500Y678470D02*
X114500Y678470D01*
X48500Y677470D02*
X115500Y677470D01*
X48500Y676470D02*
X115500Y676470D01*
X48500Y675470D02*
X115500Y675470D01*
X48500Y674470D02*
X115500Y674470D01*
X48500Y673470D02*
X116500Y673470D01*
X47500Y672470D02*
X116500Y672470D01*
X47500Y671470D02*
X116500Y671470D01*
X47500Y670470D02*
X116500Y670470D01*
X47500Y669470D02*
X116500Y669470D01*
X47500Y668470D02*
X116500Y668470D01*
X47500Y667470D02*
X116500Y667470D01*
X47500Y666470D02*
X116500Y666470D01*
X47500Y665470D02*
X116500Y665470D01*
X47500Y664470D02*
X116500Y664470D01*
X47500Y663470D02*
X116500Y663470D01*
X47500Y662470D02*
X116500Y662470D01*
X48500Y661470D02*
X115500Y661470D01*
X48500Y660470D02*
X115500Y660470D01*
X48500Y659470D02*
X115500Y659470D01*
X48500Y658470D02*
X115500Y658470D01*
X48500Y657470D02*
X115500Y657470D01*
X49500Y656470D02*
X114500Y656470D01*
X49500Y655470D02*
X114500Y655470D01*
X50500Y654470D02*
X114500Y654470D01*
X50500Y653470D02*
X113500Y653470D01*
X50500Y652470D02*
X113500Y652470D01*
X51500Y651470D02*
X112500Y651470D01*
X51500Y650470D02*
X112500Y650470D01*
X52500Y649470D02*
X111500Y649470D01*
X53500Y648470D02*
X110500Y648470D01*
X53500Y647470D02*
X110500Y647470D01*
X54500Y646470D02*
X109500Y646470D01*
X55500Y645470D02*
X108500Y645470D01*
X56500Y644470D02*
X107500Y644470D01*
X57500Y643470D02*
X106500Y643470D01*
X58500Y642470D02*
X105500Y642470D01*
X59500Y641470D02*
X104500Y641470D01*
X60500Y640470D02*
X103500Y640470D01*
X61500Y639470D02*
X102500Y639470D01*
X63500Y638470D02*
X100500Y638470D01*
X64500Y637470D02*
X99500Y637470D01*
X66500Y636470D02*
X97500Y636470D01*
X68500Y635470D02*
X95500Y635470D01*
X71500Y634470D02*
X92500Y634470D01*
X74500Y633470D02*
X89500Y633470D01*
X78500Y602470D02*
X85500Y602470D01*
X73500Y601470D02*
X90500Y601470D01*
X70500Y600470D02*
X93500Y600470D01*
X67500Y599470D02*
X96500Y599470D01*
X65500Y598470D02*
X98500Y598470D01*
X64500Y597470D02*
X99500Y597470D01*
X62500Y596470D02*
X101500Y596470D01*
X61500Y595470D02*
X102500Y595470D01*
X60500Y594470D02*
X104500Y594470D01*
X58500Y593470D02*
X105500Y593470D01*
X57500Y592470D02*
X106500Y592470D01*
X56500Y591470D02*
X107500Y591470D01*
X55500Y590470D02*
X108500Y590470D01*
X55500Y589470D02*
X108500Y589470D01*
X54500Y588470D02*
X109500Y588470D01*
X53500Y587470D02*
X110500Y587470D01*
X53500Y586470D02*
X111500Y586470D01*
X52500Y585470D02*
X111500Y585470D01*
X51500Y584470D02*
X112500Y584470D01*
X51500Y583470D02*
X112500Y583470D01*
X50500Y582470D02*
X113500Y582470D01*
X50500Y581470D02*
X113500Y581470D01*
X49500Y580470D02*
X114500Y580470D01*
X49500Y579470D02*
X114500Y579470D01*
X49500Y578470D02*
X114500Y578470D01*
X48500Y577470D02*
X115500Y577470D01*
X48500Y576470D02*
X115500Y576470D01*
X48500Y575470D02*
X115500Y575470D01*
X48500Y574470D02*
X115500Y574470D01*
X48500Y573470D02*
X116500Y573470D01*
X47500Y572470D02*
X116500Y572470D01*
X47500Y571470D02*
X116500Y571470D01*
X47500Y570470D02*
X116500Y570470D01*
X47500Y569470D02*
X116500Y569470D01*
X47500Y568470D02*
X116500Y568470D01*
X47500Y567470D02*
X116500Y567470D01*
X47500Y566470D02*
X116500Y566470D01*
X47500Y565470D02*
X116500Y565470D01*
X47500Y564470D02*
X116500Y564470D01*
X47500Y563470D02*
X116500Y563470D01*
X47500Y562470D02*
X116500Y562470D01*
X48500Y561470D02*
X115500Y561470D01*
X48500Y560470D02*
X115500Y560470D01*
X48500Y559470D02*
X115500Y559470D01*
X48500Y558470D02*
X115500Y558470D01*
X49500Y557470D02*
X115500Y557470D01*
X49500Y556470D02*
X114500Y556470D01*
X49500Y555470D02*
X114500Y555470D01*
X50500Y554470D02*
X114500Y554470D01*
X50500Y553470D02*
X113500Y553470D01*
X50500Y552470D02*
X113500Y552470D01*
X51500Y551470D02*
X112500Y551470D01*
X52500Y550470D02*
X112500Y550470D01*
X52500Y549470D02*
X111500Y549470D01*
X53500Y548470D02*
X110500Y548470D01*
X53500Y547470D02*
X110500Y547470D01*
X54500Y546470D02*
X109500Y546470D01*
X55500Y545470D02*
X108500Y545470D01*
X56500Y544470D02*
X107500Y544470D01*
X57500Y543470D02*
X106500Y543470D01*
X58500Y542470D02*
X105500Y542470D01*
X59500Y541470D02*
X104500Y541470D01*
X60500Y540470D02*
X103500Y540470D01*
X61500Y539470D02*
X102500Y539470D01*
X63500Y538470D02*
X100500Y538470D01*
X64500Y537470D02*
X99500Y537470D01*
X66500Y536470D02*
X97500Y536470D01*
X68500Y535470D02*
X95500Y535470D01*
X71500Y534470D02*
X92500Y534470D01*
X75500Y533470D02*
X88500Y533470D01*
X78500Y502470D02*
X85500Y502470D01*
X73500Y501470D02*
X90500Y501470D01*
X70500Y500470D02*
X94500Y500470D01*
X67500Y499470D02*
X96500Y499470D01*
X65500Y498470D02*
X98500Y498470D01*
X64500Y497470D02*
X99500Y497470D01*
X62500Y496470D02*
X101500Y496470D01*
X61500Y495470D02*
X102500Y495470D01*
X59500Y494470D02*
X104500Y494470D01*
X58500Y493470D02*
X105500Y493470D01*
X57500Y492470D02*
X106500Y492470D01*
X56500Y491470D02*
X107500Y491470D01*
X55500Y490470D02*
X108500Y490470D01*
X55500Y489470D02*
X108500Y489470D01*
X54500Y488470D02*
X109500Y488470D01*
X53500Y487470D02*
X110500Y487470D01*
X52500Y486470D02*
X111500Y486470D01*
X52500Y485470D02*
X111500Y485470D01*
X51500Y484470D02*
X112500Y484470D01*
X51500Y483470D02*
X112500Y483470D01*
X50500Y482470D02*
X113500Y482470D01*
X50500Y481470D02*
X113500Y481470D01*
X49500Y480470D02*
X114500Y480470D01*
X49500Y479470D02*
X114500Y479470D01*
X49500Y478470D02*
X114500Y478470D01*
X48500Y477470D02*
X115500Y477470D01*
X48500Y476470D02*
X115500Y476470D01*
X48500Y475470D02*
X115500Y475470D01*
X48500Y474470D02*
X115500Y474470D01*
X48500Y473470D02*
X116500Y473470D01*
X47500Y472470D02*
X116500Y472470D01*
X47500Y471470D02*
X116500Y471470D01*
X47500Y470470D02*
X116500Y470470D01*
X47500Y469470D02*
X116500Y469470D01*
X47500Y468470D02*
X116500Y468470D01*
X47500Y467470D02*
X116500Y467470D01*
X47500Y466470D02*
X116500Y466470D01*
X47500Y465470D02*
X116500Y465470D01*
X47500Y464470D02*
X116500Y464470D01*
X47500Y463470D02*
X116500Y463470D01*
X47500Y462470D02*
X116500Y462470D01*
X48500Y461470D02*
X115500Y461470D01*
X48500Y460470D02*
X115500Y460470D01*
X48500Y459470D02*
X115500Y459470D01*
X48500Y458470D02*
X115500Y458470D01*
X49500Y457470D02*
X115500Y457470D01*
X49500Y456470D02*
X114500Y456470D01*
X49500Y455470D02*
X114500Y455470D01*
X50500Y454470D02*
X114500Y454470D01*
X50500Y453470D02*
X113500Y453470D01*
X50500Y452470D02*
X113500Y452470D01*
X51500Y451470D02*
X112500Y451470D01*
X52500Y450470D02*
X111500Y450470D01*
X52500Y449470D02*
X111500Y449470D01*
X53500Y448470D02*
X110500Y448470D01*
X53500Y447470D02*
X110500Y447470D01*
X54500Y446470D02*
X109500Y446470D01*
X55500Y445470D02*
X108500Y445470D01*
X56500Y444470D02*
X107500Y444470D01*
X57500Y443470D02*
X106500Y443470D01*
X58500Y442470D02*
X105500Y442470D01*
X59500Y441470D02*
X104500Y441470D01*
X60500Y440470D02*
X103500Y440470D01*
X61500Y439470D02*
X102500Y439470D01*
X63500Y438470D02*
X100500Y438470D01*
X64500Y437470D02*
X99500Y437470D01*
X66500Y436470D02*
X97500Y436470D01*
X68500Y435470D02*
X95500Y435470D01*
X71500Y434470D02*
X92500Y434470D01*
X75500Y433470D02*
X88500Y433470D01*
X1183500Y241470D02*
X1272500Y241470D01*
X1183500Y240470D02*
X1272500Y240470D01*
X1183500Y239470D02*
X1272500Y239470D01*
X1183500Y238470D02*
X1272500Y238470D01*
X1183500Y237470D02*
X1272500Y237470D01*
X1183500Y236470D02*
X1272500Y236470D01*
X1183500Y235470D02*
X1272500Y235470D01*
X1183500Y234470D02*
X1272500Y234470D01*
X1183500Y233470D02*
X1272500Y233470D01*
X1183500Y232470D02*
X1272500Y232470D01*
X1183500Y231470D02*
X1272500Y231470D01*
X1183500Y230470D02*
X1272500Y230470D01*
X1183500Y229470D02*
X1272500Y229470D01*
X1183500Y228470D02*
X1272500Y228470D01*
X1183500Y227470D02*
X1272500Y227470D01*
X1183500Y226470D02*
X1272500Y226470D01*
X1183500Y225470D02*
X1272500Y225470D01*
X1183500Y224470D02*
X1272500Y224470D01*
X1183500Y223470D02*
X1272500Y223470D01*
X1183500Y222470D02*
X1272500Y222470D01*
X1183500Y221470D02*
X1272500Y221470D01*
X1183500Y220470D02*
X1272500Y220470D01*
X1183500Y219470D02*
X1272500Y219470D01*
X1183500Y218470D02*
X1272500Y218470D01*
X1183500Y217470D02*
X1272500Y217470D01*
X1183500Y216470D02*
X1272500Y216470D01*
X1183500Y215470D02*
X1224500Y215470D01*
X1230500Y215470D02*
X1272500Y215470D01*
X1183500Y214470D02*
X1220500Y214470D01*
X1234500Y214470D02*
X1272500Y214470D01*
X1183500Y213470D02*
X1218500Y213470D01*
X1236500Y213470D02*
X1272500Y213470D01*
X1183500Y212470D02*
X1216500Y212470D01*
X1238500Y212470D02*
X1272500Y212470D01*
X1183500Y211470D02*
X1215500Y211470D01*
X1239500Y211470D02*
X1272500Y211470D01*
X1183500Y210470D02*
X1214500Y210470D01*
X1240500Y210470D02*
X1272500Y210470D01*
X1183500Y209470D02*
X1213500Y209470D01*
X1241500Y209470D02*
X1272500Y209470D01*
X1183500Y208470D02*
X1212500Y208470D01*
X1242500Y208470D02*
X1272500Y208470D01*
X1183500Y207470D02*
X1211500Y207470D01*
X1243500Y207470D02*
X1272500Y207470D01*
X1183500Y206470D02*
X1211500Y206470D01*
X1244500Y206470D02*
X1272500Y206470D01*
X1183500Y205470D02*
X1210500Y205470D01*
X1244500Y205470D02*
X1272500Y205470D01*
X1183500Y204470D02*
X1209500Y204470D01*
X1245500Y204470D02*
X1272500Y204470D01*
X1183500Y203470D02*
X1209500Y203470D01*
X1245500Y203470D02*
X1272500Y203470D01*
X1183500Y202470D02*
X1209500Y202470D01*
X1245500Y202470D02*
X1272500Y202470D01*
X1183500Y201470D02*
X1208500Y201470D01*
X1246500Y201470D02*
X1272500Y201470D01*
X1183500Y200470D02*
X1208500Y200470D01*
X1246500Y200470D02*
X1272500Y200470D01*
X1183500Y199470D02*
X1208500Y199470D01*
X1246500Y199470D02*
X1272500Y199470D01*
X1183500Y198470D02*
X1208500Y198470D01*
X1246500Y198470D02*
X1272500Y198470D01*
X1183500Y197470D02*
X1208500Y197470D01*
X1246500Y197470D02*
X1272500Y197470D01*
X1183500Y196470D02*
X1208500Y196470D01*
X1246500Y196470D02*
X1272500Y196470D01*
X1183500Y195470D02*
X1208500Y195470D01*
X1246500Y195470D02*
X1272500Y195470D01*
X1183500Y194470D02*
X1208500Y194470D01*
X1246500Y194470D02*
X1272500Y194470D01*
X1183500Y193470D02*
X1208500Y193470D01*
X1246500Y193470D02*
X1272500Y193470D01*
X1183500Y192470D02*
X1209500Y192470D01*
X1246500Y192470D02*
X1272500Y192470D01*
X1183500Y191470D02*
X1209500Y191470D01*
X1245500Y191470D02*
X1272500Y191470D01*
X1183500Y190470D02*
X1209500Y190470D01*
X1245500Y190470D02*
X1272500Y190470D01*
X1183500Y189470D02*
X1210500Y189470D01*
X1245500Y189470D02*
X1272500Y189470D01*
X1183500Y188470D02*
X1210500Y188470D01*
X1244500Y188470D02*
X1272500Y188470D01*
X1183500Y187470D02*
X1211500Y187470D01*
X1244500Y187470D02*
X1272500Y187470D01*
X1183500Y186470D02*
X1211500Y186470D01*
X1243500Y186470D02*
X1272500Y186470D01*
X1183500Y185470D02*
X1212500Y185470D01*
X1242500Y185470D02*
X1272500Y185470D01*
X1183500Y184470D02*
X1213500Y184470D01*
X1241500Y184470D02*
X1272500Y184470D01*
X1183500Y183470D02*
X1214500Y183470D01*
X1240500Y183470D02*
X1272500Y183470D01*
X1183500Y182470D02*
X1215500Y182470D01*
X1239500Y182470D02*
X1272500Y182470D01*
X1183500Y181470D02*
X1216500Y181470D01*
X1238500Y181470D02*
X1272500Y181470D01*
X1183500Y180470D02*
X1218500Y180470D01*
X1236500Y180470D02*
X1272500Y180470D01*
X1183500Y179470D02*
X1221500Y179470D01*
X1234500Y179470D02*
X1272500Y179470D01*
X1183500Y178470D02*
X1272500Y178470D01*
X1183500Y177470D02*
X1272500Y177470D01*
X1183500Y176470D02*
X1272500Y176470D01*
X1183500Y175470D02*
X1272500Y175470D01*
X1183500Y174470D02*
X1272500Y174470D01*
X1183500Y173470D02*
X1272500Y173470D01*
X1183500Y172470D02*
X1272500Y172470D01*
X1183500Y171470D02*
X1272500Y171470D01*
X1183500Y170470D02*
X1272500Y170470D01*
X1183500Y169470D02*
X1272500Y169470D01*
X1183500Y168470D02*
X1272500Y168470D01*
X1183500Y167470D02*
X1272500Y167470D01*
X1183500Y166470D02*
X1272500Y166470D01*
X1183500Y165470D02*
X1272500Y165470D01*
X1183500Y164470D02*
X1272500Y164470D01*
X1183500Y163470D02*
X1272500Y163470D01*
X1183500Y162470D02*
X1272500Y162470D01*
X1183500Y161470D02*
X1272500Y161470D01*
X1183500Y160470D02*
X1272500Y160470D01*
X1183500Y159470D02*
X1272500Y159470D01*
X1183500Y158470D02*
X1272500Y158470D01*
X1183500Y157470D02*
X1272500Y157470D01*
X1183500Y156470D02*
X1272500Y156470D01*
X1183500Y155470D02*
X1272500Y155470D01*
X1183500Y154470D02*
X1272500Y154470D01*
X1183500Y153470D02*
X1272500Y153470D01*
X1183500Y152470D02*
X1271500Y152470D01*
D02*
G04 End of Mask0*
M02*