; NON-PLATED HOLES START AT T1
; THROUGH (PLATED) HOLES START AT T100
M48
INCH
T1C0.118110
T100C0.047244
T101C0.038000
T102C0.030000
T103C0.035000
T104C0.018542
T105C0.039370
T106C0.015748
T107C0.018528
%
T1
X024147Y001372
X001325Y001359
X024160Y010427
X001325Y010427
T100
X012279Y001962
X010761Y001962
T101
X024442Y005029
X024442Y006884
X024442Y004029
X024442Y007884
T102
X008891Y002159
X003066Y008360
X010269Y008360
X008891Y003161
X009267Y008360
X004068Y008360
T103
X007084Y007166
X003021Y006182
X003084Y007166
X008202Y008262
X003021Y002159
X003021Y005198
X011647Y008363
X008596Y005506
X003084Y003143
X007084Y004324
X009596Y005506
X011450Y005718
X005202Y008262
X011647Y007363
X007021Y005198
X007084Y003143
X003084Y004324
X007021Y002159
X011450Y004718
X007021Y006182
T104
X000820Y006671
X000820Y004671
T105
X003270Y011017
X019270Y009947
X017270Y011017
X012270Y009947
X014403Y002651
X006270Y009947
X004270Y009947
X010270Y009947
X007270Y009947
X009270Y011017
X013270Y009947
X021686Y001765
X014270Y011017
X014403Y001667
X016270Y011017
X011270Y009947
X005270Y011017
X020270Y011017
X022270Y011017
X018270Y011017
X021686Y006982
X014403Y007868
X015270Y009947
X008270Y009947
X021270Y011017
X015270Y011017
X008270Y011017
X021270Y009947
X014403Y006884
X005270Y009947
X022270Y009947
X020270Y009947
X018270Y009947
X014403Y005899
X007270Y011017
X013270Y011017
X009270Y009947
X016270Y009947
X014270Y009947
X021686Y007868
X011270Y011017
X021686Y002651
X019270Y011017
X003270Y009947
X017270Y009947
X010270Y011017
X004270Y011017
X012270Y011017
X006270Y011017
T106
X005839Y006429
X002479Y009629
X013615Y005506
X001519Y006269
X004239Y005469
T107
X000820Y005671
X000820Y007671
T00
M30
