G04 MADE WITH FRITZING*
G04 WWW.FRITZING.ORG*
G04 DOUBLE SIDED*
G04 HOLES PLATED*
G04 CONTOUR ON CENTER OF CONTOUR VECTOR*
%FSLAX26Y26*%
%MOIN*%
%ADD10C,0.047559*%
%ADD11C,0.059055*%
%ADD12C,0.080000*%
%ADD13C,0.060194*%
%ADD14C,0.060208*%
%ADD15C,0.075000*%
%ADD16C,0.070000*%
%ADD17C,0.039370*%
%ADD18C,0.079528*%
%ADD19C,0.078740*%
%ADD20C,0.079370*%
%ADD21R,0.075000X0.075000*%
%ADD22C,0.016000*%
%ADD23R,0.001000X0.001000*%
G04 COPPER0*
%FSLAX26Y26*%
%MOIN*%
D10*
X2306470Y717933D03*
X2306470Y639193D03*
X2306470Y560452D03*
X2306470Y481712D03*
D11*
X2227030Y1101791D03*
X2127030Y1101791D03*
X2027030Y1101791D03*
X1927030Y1101791D03*
X1827030Y1101791D03*
X1727030Y1101791D03*
X1627030Y1101791D03*
X1527030Y1101791D03*
X1427030Y1101791D03*
X1327030Y1101791D03*
X1227030Y1101791D03*
X1127030Y1101791D03*
X1027030Y1101791D03*
X927030Y1101791D03*
X827030Y1101791D03*
X727030Y1101791D03*
X627030Y1101791D03*
X527030Y1101791D03*
X427030Y1101791D03*
X327030Y1101791D03*
X2227030Y994791D03*
X2127030Y994791D03*
X2027030Y994791D03*
X1927030Y994791D03*
X1827030Y994791D03*
X1727030Y994791D03*
X1627030Y994791D03*
X1527030Y994791D03*
X1427030Y994791D03*
X1327030Y994791D03*
X1227030Y994791D03*
X1127030Y994791D03*
X1027030Y994791D03*
X927030Y994791D03*
X827030Y994791D03*
X727030Y994791D03*
X627030Y994791D03*
X527030Y994791D03*
X427030Y994791D03*
X327030Y994791D03*
D12*
X1227950Y196278D03*
X1076160Y196278D03*
D13*
X82057Y767146D03*
D14*
X82057Y667160D03*
D13*
X82057Y567147D03*
D14*
X82057Y467147D03*
D15*
X520251Y826200D03*
X820251Y826200D03*
X708440Y432489D03*
X308440Y432489D03*
X302151Y519811D03*
X702151Y519811D03*
D16*
X926759Y836043D03*
X1026940Y836043D03*
D15*
X708440Y716656D03*
X308440Y716656D03*
X708440Y314389D03*
X308440Y314389D03*
D16*
X889144Y316146D03*
X889144Y215961D03*
X306680Y836043D03*
X406865Y836043D03*
D15*
X302151Y215956D03*
X702151Y215956D03*
X302151Y618234D03*
X702151Y618234D03*
X1164740Y836349D03*
X1164740Y736349D03*
X959620Y550610D03*
X859620Y550610D03*
X1145050Y571869D03*
X1145050Y471869D03*
D17*
X552000Y653785D03*
X264000Y925785D03*
X744000Y909785D03*
D18*
X1440330Y175330D03*
D19*
X1440330Y688405D03*
X1440330Y265177D03*
X1440330Y589980D03*
X1440330Y786830D03*
X2168670Y786830D03*
X2168670Y698248D03*
X2168670Y265177D03*
X2168670Y176590D03*
D17*
X1361590Y550610D03*
D20*
X1440330Y373444D03*
X1440330Y265177D03*
X1440330Y589980D03*
X1440330Y688405D03*
X1440330Y786830D03*
X2168680Y786830D03*
X2168680Y698247D03*
X2168680Y265177D03*
X2168680Y176590D03*
X1440330Y176590D03*
D21*
X1164740Y836349D03*
X959620Y550610D03*
X1145050Y571869D03*
D22*
X610786Y983676D02*
X456000Y877785D01*
D02*
X456000Y877785D02*
X456000Y781785D01*
D02*
X456000Y781785D02*
X344000Y557785D01*
D02*
X344000Y557785D02*
X315111Y531571D01*
D02*
X559662Y651970D02*
X685122Y622266D01*
D02*
X1147330Y734576D02*
X790017Y698188D01*
D02*
X790017Y698188D02*
X715095Y630011D01*
D02*
X724740Y320757D02*
X840000Y365785D01*
D02*
X840000Y365785D02*
X952000Y365785D01*
D02*
X952000Y365785D02*
X1062200Y215336D01*
D02*
X930001Y850688D02*
X936000Y877785D01*
D02*
X936000Y877785D02*
X1007320Y895226D01*
D02*
X1007320Y895226D02*
X1240000Y909785D01*
D02*
X1240000Y909785D02*
X1232000Y701785D01*
D02*
X1232000Y701785D02*
X1164890Y649264D01*
D02*
X1164890Y649264D02*
X790017Y638683D01*
D02*
X790017Y638683D02*
X790017Y492099D01*
D02*
X790017Y492099D02*
X952000Y365785D01*
D02*
X717337Y731725D02*
X728000Y749785D01*
D02*
X728000Y749785D02*
X856000Y749785D01*
D02*
X856000Y749785D02*
X1016000Y797785D01*
D02*
X1016000Y797785D02*
X1022820Y821621D01*
D02*
X1217720Y217569D02*
X1208000Y237785D01*
D02*
X1208000Y237785D02*
X1224000Y653785D01*
D02*
X1224000Y653785D02*
X1272000Y669785D01*
D02*
X1272000Y669785D02*
X1272000Y941785D01*
D02*
X1272000Y941785D02*
X909229Y925198D01*
D02*
X909229Y925198D02*
X880000Y877785D01*
D02*
X880000Y877785D02*
X872000Y765785D01*
D02*
X872000Y765785D02*
X856000Y749785D01*
D02*
X90542Y770863D02*
X152000Y797785D01*
D02*
X152000Y797785D02*
X258815Y919859D01*
D02*
X821751Y843636D02*
X824000Y869785D01*
D02*
X824000Y869785D02*
X904000Y1053785D01*
D02*
X904000Y1053785D02*
X1384000Y1053785D01*
D02*
X1384000Y1053785D02*
X1413890Y1087133D01*
D02*
X316326Y330011D02*
X504000Y701785D01*
D02*
X504000Y701785D02*
X803966Y819793D01*
D02*
X75069Y673253D02*
X24000Y717785D01*
D02*
X24000Y717785D02*
X24000Y797785D01*
D02*
X24000Y797785D02*
X312000Y1053785D01*
D02*
X312000Y1053785D02*
X680000Y1037785D01*
D02*
X680000Y1037785D02*
X680000Y957785D01*
D02*
X680000Y957785D02*
X737701Y914509D01*
D02*
X2012700Y1088303D02*
X1976000Y1053785D01*
D02*
X1976000Y1053785D02*
X1512000Y1053785D01*
D02*
X1512000Y1053785D02*
X1480000Y1021785D01*
D02*
X1480000Y1021785D02*
X1464000Y933785D01*
D02*
X1464000Y933785D02*
X1313010Y904488D01*
D02*
X1313010Y904488D02*
X1302230Y619317D01*
D02*
X1302230Y619317D02*
X1256000Y605785D01*
D02*
X1256000Y605785D02*
X1253680Y314052D01*
D02*
X1253680Y314052D02*
X1288000Y253785D01*
D02*
X1288000Y253785D02*
X1293140Y117970D01*
D02*
X1293140Y117970D02*
X1056360Y126860D01*
D02*
X1056360Y126860D02*
X264000Y157780D01*
D02*
X264000Y157780D02*
X248000Y173780D01*
D02*
X248000Y173780D02*
X248000Y429785D01*
D02*
X248000Y429785D02*
X89193Y561240D01*
D02*
X307324Y699191D02*
X303267Y635698D01*
D02*
X306901Y821044D02*
X308182Y734154D01*
D02*
X874144Y215961D02*
X719651Y215956D01*
D02*
X85785Y458659D02*
X232000Y125780D01*
D02*
X232000Y125780D02*
X1322020Y77810D01*
D02*
X1322020Y77810D02*
X1320000Y285785D01*
D02*
X1320000Y285785D02*
X2072000Y941785D01*
D02*
X2072000Y941785D02*
X2072000Y1069785D01*
D02*
X2072000Y1069785D02*
X2110020Y1091894D01*
D02*
X1952030Y925420D02*
X1458190Y696678D01*
D02*
X2012580Y981424D02*
X1952030Y925420D01*
D02*
X1361990Y558473D02*
X1371660Y747767D01*
D02*
X1371660Y747767D02*
X1423220Y777097D01*
D23*
X80500Y797470D02*
X83500Y797470D01*
X75500Y796470D02*
X88500Y796470D01*
X72500Y795470D02*
X91500Y795470D01*
X69500Y794470D02*
X94500Y794470D01*
X67500Y793470D02*
X96500Y793470D01*
X66500Y792470D02*
X98500Y792470D01*
X64500Y791470D02*
X99500Y791470D01*
X63500Y790470D02*
X100500Y790470D01*
X62500Y789470D02*
X101500Y789470D01*
X61500Y788470D02*
X103500Y788470D01*
X60500Y787470D02*
X103500Y787470D01*
X59500Y786470D02*
X104500Y786470D01*
X58500Y785470D02*
X105500Y785470D01*
X57500Y784470D02*
X106500Y784470D01*
X57500Y783470D02*
X106500Y783470D01*
X56500Y782470D02*
X107500Y782470D01*
X56500Y781470D02*
X107500Y781470D01*
X55500Y780470D02*
X108500Y780470D01*
X55500Y779470D02*
X108500Y779470D01*
X54500Y778470D02*
X109500Y778470D01*
X54500Y777470D02*
X109500Y777470D01*
X53500Y776470D02*
X78500Y776470D01*
X85500Y776470D02*
X110500Y776470D01*
X53500Y775470D02*
X76500Y775470D01*
X87500Y775470D02*
X110500Y775470D01*
X53500Y774470D02*
X75500Y774470D01*
X88500Y774470D02*
X110500Y774470D01*
X53500Y773470D02*
X74500Y773470D01*
X89500Y773470D02*
X110500Y773470D01*
X52500Y772470D02*
X73500Y772470D01*
X90500Y772470D02*
X111500Y772470D01*
X52500Y771470D02*
X73500Y771470D01*
X91500Y771470D02*
X111500Y771470D01*
X52500Y770470D02*
X72500Y770470D01*
X91500Y770470D02*
X111500Y770470D01*
X52500Y769470D02*
X72500Y769470D01*
X91500Y769470D02*
X111500Y769470D01*
X52500Y768470D02*
X72500Y768470D01*
X91500Y768470D02*
X111500Y768470D01*
X52500Y767470D02*
X72500Y767470D01*
X91500Y767470D02*
X111500Y767470D01*
X52500Y766470D02*
X72500Y766470D01*
X91500Y766470D02*
X111500Y766470D01*
X52500Y765470D02*
X72500Y765470D01*
X91500Y765470D02*
X111500Y765470D01*
X52500Y764470D02*
X72500Y764470D01*
X91500Y764470D02*
X111500Y764470D01*
X52500Y763470D02*
X73500Y763470D01*
X91500Y763470D02*
X111500Y763470D01*
X52500Y762470D02*
X73500Y762470D01*
X90500Y762470D02*
X111500Y762470D01*
X53500Y761470D02*
X74500Y761470D01*
X89500Y761470D02*
X110500Y761470D01*
X53500Y760470D02*
X75500Y760470D01*
X88500Y760470D02*
X110500Y760470D01*
X53500Y759470D02*
X76500Y759470D01*
X87500Y759470D02*
X110500Y759470D01*
X54500Y758470D02*
X79500Y758470D01*
X85500Y758470D02*
X110500Y758470D01*
X54500Y757470D02*
X109500Y757470D01*
X54500Y756470D02*
X109500Y756470D01*
X55500Y755470D02*
X108500Y755470D01*
X55500Y754470D02*
X108500Y754470D01*
X56500Y753470D02*
X107500Y753470D01*
X56500Y752470D02*
X107500Y752470D01*
X57500Y751470D02*
X106500Y751470D01*
X57500Y750470D02*
X106500Y750470D01*
X58500Y749470D02*
X105500Y749470D01*
X59500Y748470D02*
X104500Y748470D01*
X60500Y747470D02*
X103500Y747470D01*
X61500Y746470D02*
X103500Y746470D01*
X62500Y745470D02*
X101500Y745470D01*
X63500Y744470D02*
X100500Y744470D01*
X64500Y743470D02*
X99500Y743470D01*
X66500Y742470D02*
X97500Y742470D01*
X67500Y741470D02*
X96500Y741470D01*
X69500Y740470D02*
X94500Y740470D01*
X72500Y739470D02*
X91500Y739470D01*
X75500Y738470D02*
X88500Y738470D01*
X81500Y737470D02*
X82500Y737470D01*
X79500Y697470D02*
X84500Y697470D01*
X74500Y696470D02*
X89500Y696470D01*
X71500Y695470D02*
X92500Y695470D01*
X69500Y694470D02*
X94500Y694470D01*
X67500Y693470D02*
X96500Y693470D01*
X65500Y692470D02*
X98500Y692470D01*
X64500Y691470D02*
X99500Y691470D01*
X63500Y690470D02*
X100500Y690470D01*
X61500Y689470D02*
X102500Y689470D01*
X60500Y688470D02*
X103500Y688470D01*
X60500Y687470D02*
X104500Y687470D01*
X59500Y686470D02*
X104500Y686470D01*
X58500Y685470D02*
X105500Y685470D01*
X57500Y684470D02*
X106500Y684470D01*
X57500Y683470D02*
X106500Y683470D01*
X56500Y682470D02*
X107500Y682470D01*
X56500Y681470D02*
X108500Y681470D01*
X55500Y680470D02*
X108500Y680470D01*
X55500Y679470D02*
X108500Y679470D01*
X54500Y678470D02*
X109500Y678470D01*
X54500Y677470D02*
X109500Y677470D01*
X53500Y676470D02*
X78500Y676470D01*
X85500Y676470D02*
X110500Y676470D01*
X53500Y675470D02*
X76500Y675470D01*
X87500Y675470D02*
X110500Y675470D01*
X53500Y674470D02*
X75500Y674470D01*
X88500Y674470D02*
X110500Y674470D01*
X53500Y673470D02*
X74500Y673470D01*
X89500Y673470D02*
X110500Y673470D01*
X52500Y672470D02*
X73500Y672470D01*
X90500Y672470D02*
X111500Y672470D01*
X52500Y671470D02*
X72500Y671470D01*
X91500Y671470D02*
X111500Y671470D01*
X52500Y670470D02*
X72500Y670470D01*
X91500Y670470D02*
X111500Y670470D01*
X52500Y669470D02*
X72500Y669470D01*
X91500Y669470D02*
X111500Y669470D01*
X52500Y668470D02*
X72500Y668470D01*
X91500Y668470D02*
X111500Y668470D01*
X52500Y667470D02*
X72500Y667470D01*
X91500Y667470D02*
X111500Y667470D01*
X52500Y666470D02*
X72500Y666470D01*
X91500Y666470D02*
X111500Y666470D01*
X52500Y665470D02*
X72500Y665470D01*
X91500Y665470D02*
X111500Y665470D01*
X52500Y664470D02*
X72500Y664470D01*
X91500Y664470D02*
X111500Y664470D01*
X52500Y663470D02*
X73500Y663470D01*
X90500Y663470D02*
X111500Y663470D01*
X52500Y662470D02*
X73500Y662470D01*
X90500Y662470D02*
X111500Y662470D01*
X53500Y661470D02*
X74500Y661470D01*
X89500Y661470D02*
X110500Y661470D01*
X53500Y660470D02*
X75500Y660470D01*
X88500Y660470D02*
X110500Y660470D01*
X53500Y659470D02*
X76500Y659470D01*
X87500Y659470D02*
X110500Y659470D01*
X54500Y658470D02*
X79500Y658470D01*
X84500Y658470D02*
X110500Y658470D01*
X54500Y657470D02*
X109500Y657470D01*
X54500Y656470D02*
X109500Y656470D01*
X55500Y655470D02*
X108500Y655470D01*
X55500Y654470D02*
X108500Y654470D01*
X56500Y653470D02*
X107500Y653470D01*
X56500Y652470D02*
X107500Y652470D01*
X57500Y651470D02*
X106500Y651470D01*
X57500Y650470D02*
X106500Y650470D01*
X58500Y649470D02*
X105500Y649470D01*
X59500Y648470D02*
X104500Y648470D01*
X60500Y647470D02*
X103500Y647470D01*
X61500Y646470D02*
X102500Y646470D01*
X62500Y645470D02*
X101500Y645470D01*
X63500Y644470D02*
X100500Y644470D01*
X64500Y643470D02*
X99500Y643470D01*
X66500Y642470D02*
X97500Y642470D01*
X67500Y641470D02*
X96500Y641470D01*
X69500Y640470D02*
X94500Y640470D01*
X72500Y639470D02*
X91500Y639470D01*
X75500Y638470D02*
X88500Y638470D01*
X79500Y597470D02*
X84500Y597470D01*
X74500Y596470D02*
X89500Y596470D01*
X71500Y595470D02*
X92500Y595470D01*
X69500Y594470D02*
X94500Y594470D01*
X67500Y593470D02*
X96500Y593470D01*
X65500Y592470D02*
X98500Y592470D01*
X64500Y591470D02*
X99500Y591470D01*
X63500Y590470D02*
X101500Y590470D01*
X61500Y589470D02*
X102500Y589470D01*
X60500Y588470D02*
X103500Y588470D01*
X59500Y587470D02*
X104500Y587470D01*
X59500Y586470D02*
X104500Y586470D01*
X58500Y585470D02*
X105500Y585470D01*
X57500Y584470D02*
X106500Y584470D01*
X57500Y583470D02*
X106500Y583470D01*
X56500Y582470D02*
X107500Y582470D01*
X56500Y581470D02*
X108500Y581470D01*
X55500Y580470D02*
X108500Y580470D01*
X55500Y579470D02*
X108500Y579470D01*
X54500Y578470D02*
X109500Y578470D01*
X54500Y577470D02*
X109500Y577470D01*
X53500Y576470D02*
X78500Y576470D01*
X85500Y576470D02*
X110500Y576470D01*
X53500Y575470D02*
X76500Y575470D01*
X87500Y575470D02*
X110500Y575470D01*
X53500Y574470D02*
X75500Y574470D01*
X88500Y574470D02*
X110500Y574470D01*
X53500Y573470D02*
X74500Y573470D01*
X89500Y573470D02*
X110500Y573470D01*
X52500Y572470D02*
X73500Y572470D01*
X90500Y572470D02*
X111500Y572470D01*
X52500Y571470D02*
X72500Y571470D01*
X91500Y571470D02*
X111500Y571470D01*
X52500Y570470D02*
X72500Y570470D01*
X91500Y570470D02*
X111500Y570470D01*
X52500Y569470D02*
X72500Y569470D01*
X91500Y569470D02*
X111500Y569470D01*
X52500Y568470D02*
X72500Y568470D01*
X91500Y568470D02*
X111500Y568470D01*
X52500Y567470D02*
X72500Y567470D01*
X91500Y567470D02*
X111500Y567470D01*
X52500Y566470D02*
X72500Y566470D01*
X91500Y566470D02*
X111500Y566470D01*
X52500Y565470D02*
X72500Y565470D01*
X91500Y565470D02*
X111500Y565470D01*
X52500Y564470D02*
X72500Y564470D01*
X91500Y564470D02*
X111500Y564470D01*
X52500Y563470D02*
X73500Y563470D01*
X90500Y563470D02*
X111500Y563470D01*
X53500Y562470D02*
X73500Y562470D01*
X90500Y562470D02*
X111500Y562470D01*
X53500Y561470D02*
X74500Y561470D01*
X89500Y561470D02*
X110500Y561470D01*
X53500Y560470D02*
X75500Y560470D01*
X88500Y560470D02*
X110500Y560470D01*
X53500Y559470D02*
X76500Y559470D01*
X87500Y559470D02*
X110500Y559470D01*
X54500Y558470D02*
X80500Y558470D01*
X83500Y558470D02*
X109500Y558470D01*
X54500Y557470D02*
X109500Y557470D01*
X54500Y556470D02*
X109500Y556470D01*
X55500Y555470D02*
X108500Y555470D01*
X55500Y554470D02*
X108500Y554470D01*
X56500Y553470D02*
X107500Y553470D01*
X56500Y552470D02*
X107500Y552470D01*
X57500Y551470D02*
X106500Y551470D01*
X57500Y550470D02*
X106500Y550470D01*
X58500Y549470D02*
X105500Y549470D01*
X59500Y548470D02*
X104500Y548470D01*
X60500Y547470D02*
X103500Y547470D01*
X61500Y546470D02*
X102500Y546470D01*
X62500Y545470D02*
X101500Y545470D01*
X63500Y544470D02*
X100500Y544470D01*
X64500Y543470D02*
X99500Y543470D01*
X66500Y542470D02*
X97500Y542470D01*
X68500Y541470D02*
X95500Y541470D01*
X70500Y540470D02*
X93500Y540470D01*
X72500Y539470D02*
X91500Y539470D01*
X75500Y538470D02*
X88500Y538470D01*
X78500Y497470D02*
X85500Y497470D01*
X74500Y496470D02*
X89500Y496470D01*
X71500Y495470D02*
X92500Y495470D01*
X69500Y494470D02*
X94500Y494470D01*
X67500Y493470D02*
X96500Y493470D01*
X65500Y492470D02*
X98500Y492470D01*
X64500Y491470D02*
X99500Y491470D01*
X62500Y490470D02*
X101500Y490470D01*
X61500Y489470D02*
X102500Y489470D01*
X60500Y488470D02*
X103500Y488470D01*
X59500Y487470D02*
X104500Y487470D01*
X59500Y486470D02*
X104500Y486470D01*
X58500Y485470D02*
X105500Y485470D01*
X57500Y484470D02*
X106500Y484470D01*
X57500Y483470D02*
X106500Y483470D01*
X56500Y482470D02*
X107500Y482470D01*
X55500Y481470D02*
X108500Y481470D01*
X55500Y480470D02*
X108500Y480470D01*
X55500Y479470D02*
X109500Y479470D01*
X54500Y478470D02*
X109500Y478470D01*
X54500Y477470D02*
X109500Y477470D01*
X53500Y476470D02*
X77500Y476470D01*
X86500Y476470D02*
X110500Y476470D01*
X53500Y475470D02*
X76500Y475470D01*
X87500Y475470D02*
X110500Y475470D01*
X53500Y474470D02*
X75500Y474470D01*
X88500Y474470D02*
X110500Y474470D01*
X53500Y473470D02*
X74500Y473470D01*
X89500Y473470D02*
X110500Y473470D01*
X52500Y472470D02*
X73500Y472470D01*
X90500Y472470D02*
X111500Y472470D01*
X52500Y471470D02*
X72500Y471470D01*
X91500Y471470D02*
X111500Y471470D01*
X52500Y470470D02*
X72500Y470470D01*
X91500Y470470D02*
X111500Y470470D01*
X52500Y469470D02*
X72500Y469470D01*
X91500Y469470D02*
X111500Y469470D01*
X52500Y468470D02*
X72500Y468470D01*
X91500Y468470D02*
X111500Y468470D01*
X52500Y467470D02*
X72500Y467470D01*
X91500Y467470D02*
X111500Y467470D01*
X52500Y466470D02*
X72500Y466470D01*
X91500Y466470D02*
X111500Y466470D01*
X52500Y465470D02*
X72500Y465470D01*
X91500Y465470D02*
X111500Y465470D01*
X52500Y464470D02*
X72500Y464470D01*
X91500Y464470D02*
X111500Y464470D01*
X52500Y463470D02*
X73500Y463470D01*
X90500Y463470D02*
X111500Y463470D01*
X53500Y462470D02*
X73500Y462470D01*
X90500Y462470D02*
X111500Y462470D01*
X53500Y461470D02*
X74500Y461470D01*
X89500Y461470D02*
X110500Y461470D01*
X53500Y460470D02*
X75500Y460470D01*
X88500Y460470D02*
X110500Y460470D01*
X53500Y459470D02*
X77500Y459470D01*
X86500Y459470D02*
X110500Y459470D01*
X54500Y458470D02*
X109500Y458470D01*
X54500Y457470D02*
X109500Y457470D01*
X54500Y456470D02*
X109500Y456470D01*
X55500Y455470D02*
X108500Y455470D01*
X55500Y454470D02*
X108500Y454470D01*
X56500Y453470D02*
X107500Y453470D01*
X56500Y452470D02*
X107500Y452470D01*
X57500Y451470D02*
X106500Y451470D01*
X58500Y450470D02*
X106500Y450470D01*
X58500Y449470D02*
X105500Y449470D01*
X59500Y448470D02*
X104500Y448470D01*
X60500Y447470D02*
X103500Y447470D01*
X61500Y446470D02*
X102500Y446470D01*
X62500Y445470D02*
X101500Y445470D01*
X63500Y444470D02*
X100500Y444470D01*
X64500Y443470D02*
X99500Y443470D01*
X66500Y442470D02*
X97500Y442470D01*
X68500Y441470D02*
X95500Y441470D01*
X70500Y440470D02*
X93500Y440470D01*
X72500Y439470D02*
X91500Y439470D01*
X76500Y438470D02*
X87500Y438470D01*
X1188500Y236470D02*
X1267500Y236470D01*
X1188500Y235470D02*
X1267500Y235470D01*
X1188500Y234470D02*
X1267500Y234470D01*
X1188500Y233470D02*
X1267500Y233470D01*
X1188500Y232470D02*
X1267500Y232470D01*
X1188500Y231470D02*
X1267500Y231470D01*
X1188500Y230470D02*
X1267500Y230470D01*
X1188500Y229470D02*
X1267500Y229470D01*
X1188500Y228470D02*
X1267500Y228470D01*
X1188500Y227470D02*
X1267500Y227470D01*
X1188500Y226470D02*
X1267500Y226470D01*
X1188500Y225470D02*
X1267500Y225470D01*
X1188500Y224470D02*
X1267500Y224470D01*
X1188500Y223470D02*
X1267500Y223470D01*
X1188500Y222470D02*
X1267500Y222470D01*
X1188500Y221470D02*
X1267500Y221470D01*
X1188500Y220470D02*
X1224500Y220470D01*
X1231500Y220470D02*
X1267500Y220470D01*
X1188500Y219470D02*
X1219500Y219470D01*
X1235500Y219470D02*
X1267500Y219470D01*
X1188500Y218470D02*
X1217500Y218470D01*
X1237500Y218470D02*
X1267500Y218470D01*
X1188500Y217470D02*
X1215500Y217470D01*
X1239500Y217470D02*
X1267500Y217470D01*
X1188500Y216470D02*
X1213500Y216470D01*
X1241500Y216470D02*
X1267500Y216470D01*
X1188500Y215470D02*
X1212500Y215470D01*
X1242500Y215470D02*
X1267500Y215470D01*
X1188500Y214470D02*
X1211500Y214470D01*
X1243500Y214470D02*
X1267500Y214470D01*
X1188500Y213470D02*
X1210500Y213470D01*
X1245500Y213470D02*
X1267500Y213470D01*
X1188500Y212470D02*
X1209500Y212470D01*
X1245500Y212470D02*
X1267500Y212470D01*
X1188500Y211470D02*
X1208500Y211470D01*
X1246500Y211470D02*
X1267500Y211470D01*
X1188500Y210470D02*
X1207500Y210470D01*
X1247500Y210470D02*
X1267500Y210470D01*
X1188500Y209470D02*
X1207500Y209470D01*
X1248500Y209470D02*
X1267500Y209470D01*
X1188500Y208470D02*
X1206500Y208470D01*
X1248500Y208470D02*
X1267500Y208470D01*
X1188500Y207470D02*
X1205500Y207470D01*
X1249500Y207470D02*
X1267500Y207470D01*
X1188500Y206470D02*
X1205500Y206470D01*
X1249500Y206470D02*
X1267500Y206470D01*
X1188500Y205470D02*
X1205500Y205470D01*
X1250500Y205470D02*
X1267500Y205470D01*
X1188500Y204470D02*
X1204500Y204470D01*
X1250500Y204470D02*
X1267500Y204470D01*
X1188500Y203470D02*
X1204500Y203470D01*
X1250500Y203470D02*
X1267500Y203470D01*
X1188500Y202470D02*
X1204500Y202470D01*
X1251500Y202470D02*
X1267500Y202470D01*
X1188500Y201470D02*
X1203500Y201470D01*
X1251500Y201470D02*
X1267500Y201470D01*
X1188500Y200470D02*
X1203500Y200470D01*
X1251500Y200470D02*
X1267500Y200470D01*
X1188500Y199470D02*
X1203500Y199470D01*
X1251500Y199470D02*
X1267500Y199470D01*
X1188500Y198470D02*
X1203500Y198470D01*
X1251500Y198470D02*
X1267500Y198470D01*
X1188500Y197470D02*
X1203500Y197470D01*
X1251500Y197470D02*
X1267500Y197470D01*
X1188500Y196470D02*
X1203500Y196470D01*
X1251500Y196470D02*
X1267500Y196470D01*
X1188500Y195470D02*
X1203500Y195470D01*
X1251500Y195470D02*
X1267500Y195470D01*
X1188500Y194470D02*
X1203500Y194470D01*
X1251500Y194470D02*
X1267500Y194470D01*
X1188500Y193470D02*
X1203500Y193470D01*
X1251500Y193470D02*
X1267500Y193470D01*
X1188500Y192470D02*
X1203500Y192470D01*
X1251500Y192470D02*
X1267500Y192470D01*
X1188500Y191470D02*
X1204500Y191470D01*
X1250500Y191470D02*
X1267500Y191470D01*
X1188500Y190470D02*
X1204500Y190470D01*
X1250500Y190470D02*
X1267500Y190470D01*
X1188500Y189470D02*
X1204500Y189470D01*
X1250500Y189470D02*
X1267500Y189470D01*
X1188500Y188470D02*
X1205500Y188470D01*
X1250500Y188470D02*
X1267500Y188470D01*
X1188500Y187470D02*
X1205500Y187470D01*
X1249500Y187470D02*
X1267500Y187470D01*
X1188500Y186470D02*
X1206500Y186470D01*
X1249500Y186470D02*
X1267500Y186470D01*
X1188500Y185470D02*
X1206500Y185470D01*
X1248500Y185470D02*
X1267500Y185470D01*
X1188500Y184470D02*
X1207500Y184470D01*
X1247500Y184470D02*
X1267500Y184470D01*
X1188500Y183470D02*
X1207500Y183470D01*
X1247500Y183470D02*
X1267500Y183470D01*
X1188500Y182470D02*
X1208500Y182470D01*
X1246500Y182470D02*
X1267500Y182470D01*
X1188500Y181470D02*
X1209500Y181470D01*
X1245500Y181470D02*
X1267500Y181470D01*
X1188500Y180470D02*
X1210500Y180470D01*
X1244500Y180470D02*
X1267500Y180470D01*
X1188500Y179470D02*
X1211500Y179470D01*
X1243500Y179470D02*
X1267500Y179470D01*
X1188500Y178470D02*
X1212500Y178470D01*
X1242500Y178470D02*
X1267500Y178470D01*
X1188500Y177470D02*
X1214500Y177470D01*
X1241500Y177470D02*
X1267500Y177470D01*
X1188500Y176470D02*
X1215500Y176470D01*
X1239500Y176470D02*
X1267500Y176470D01*
X1188500Y175470D02*
X1217500Y175470D01*
X1237500Y175470D02*
X1267500Y175470D01*
X1188500Y174470D02*
X1220500Y174470D01*
X1234500Y174470D02*
X1267500Y174470D01*
X1188500Y173470D02*
X1267500Y173470D01*
X1188500Y172470D02*
X1267500Y172470D01*
X1188500Y171470D02*
X1267500Y171470D01*
X1188500Y170470D02*
X1267500Y170470D01*
X1188500Y169470D02*
X1267500Y169470D01*
X1188500Y168470D02*
X1267500Y168470D01*
X1188500Y167470D02*
X1267500Y167470D01*
X1188500Y166470D02*
X1267500Y166470D01*
X1188500Y165470D02*
X1267500Y165470D01*
X1188500Y164470D02*
X1267500Y164470D01*
X1188500Y163470D02*
X1267500Y163470D01*
X1188500Y162470D02*
X1267500Y162470D01*
X1188500Y161470D02*
X1267500Y161470D01*
X1188500Y160470D02*
X1267500Y160470D01*
X1188500Y159470D02*
X1267500Y159470D01*
X1188500Y158470D02*
X1267500Y158470D01*
X1188500Y157470D02*
X1266500Y157470D01*
D02*
G04 End of Copper0*
M02*