G04 MADE WITH FRITZING*
G04 WWW.FRITZING.ORG*
G04 DOUBLE SIDED*
G04 HOLES PLATED*
G04 CONTOUR ON CENTER OF CONTOUR VECTOR*
%FSLAX26Y26*%
%MOIN*%
%ADD10C,0.049370*%
%ADD11C,0.088000*%
%ADD12C,0.128110*%
%ADD13C,0.089370*%
%ADD14C,0.069055*%
%ADD15C,0.085000*%
%ADD16C,0.080000*%
%ADD17R,0.088000X0.088000*%
%ADD18R,0.085000X0.085000*%
G04 MASK1*
%FSLAX26Y26*%
%MOIN*%
D10*
X1910790Y809130D03*
D11*
X2451870Y502892D03*
X2451870Y402892D03*
X2451870Y788326D03*
X2451870Y688326D03*
D12*
X2422350Y137150D03*
X140144Y135880D03*
X140144Y1042659D03*
X2423610Y1042659D03*
D13*
X896744Y117460D03*
X788478Y117460D03*
X1123120Y117460D03*
X1231390Y117460D03*
X99500Y737537D03*
X99500Y639114D03*
X99500Y530848D03*
X99500Y422581D03*
X1477460Y166670D03*
X2205800Y176510D03*
X2205800Y265103D03*
X2205800Y698170D03*
X2205800Y786759D03*
X1477460Y786759D03*
X1477460Y688326D03*
X1477460Y589903D03*
X1477460Y265103D03*
D14*
X2234630Y1101714D03*
X2134630Y1101714D03*
X2034630Y1101714D03*
X1934630Y1101714D03*
X1834630Y1101714D03*
X1734630Y1101714D03*
X1634630Y1101714D03*
X1534630Y1101714D03*
X1434630Y1101714D03*
X1334630Y1101714D03*
X1234630Y1101714D03*
X1134630Y1101714D03*
X1034630Y1101714D03*
X934630Y1101714D03*
X834630Y1101714D03*
X734630Y1101714D03*
X634630Y1101714D03*
X534630Y1101714D03*
X434630Y1101714D03*
X334630Y1101714D03*
X2234630Y994714D03*
X2134630Y994714D03*
X2034630Y994714D03*
X1934630Y994714D03*
X1834630Y994714D03*
X1734630Y994714D03*
X1634630Y994714D03*
X1534630Y994714D03*
X1434630Y994714D03*
X1334630Y994714D03*
X1234630Y994714D03*
X1134630Y994714D03*
X1034630Y994714D03*
X934630Y994714D03*
X834630Y994714D03*
X734630Y994714D03*
X634630Y994714D03*
X534630Y994714D03*
X434630Y994714D03*
X334630Y994714D03*
D15*
X814467Y482903D03*
X414467Y482903D03*
X408178Y570226D03*
X808178Y570226D03*
D16*
X965644Y519248D03*
X965644Y619433D03*
D15*
X814467Y767070D03*
X414467Y767070D03*
X814456Y394326D03*
X414456Y394326D03*
D16*
X955800Y394814D03*
X955800Y294629D03*
X955800Y837726D03*
X955800Y737541D03*
D15*
X408167Y304470D03*
X808167Y304470D03*
X408178Y658803D03*
X808178Y658803D03*
X1172340Y836270D03*
X1172340Y736270D03*
X1223120Y334003D03*
X1123120Y334003D03*
X1223120Y560381D03*
X1123120Y560381D03*
D17*
X2451870Y502892D03*
X2451870Y788326D03*
D18*
X1172340Y836270D03*
X1223120Y334003D03*
X1223120Y560381D03*
G04 End of Mask1*
M02*